<svg width="75" height="60" viewBox="0 0 75 60" fill="none" xmlns="http://www.w3.org/2000/svg">
<path d="M39.9731 51.144C35.9731 56.424 30.3998 59.064 23.2531 59.064C16.1065 59.064 10.5065 56.424 6.45312 51.144C2.45312 45.8106 0.453124 38.744 0.453124 29.944C0.453124 21.144 2.45312 14.104 6.45312 8.82397C10.5065 3.49063 16.1065 0.823966 23.2531 0.823966C30.3998 0.823966 35.9731 3.49063 39.9731 8.82397C44.0265 14.104 46.0531 21.144 46.0531 29.944C46.0531 38.744 44.0265 45.8106 39.9731 51.144ZM13.2531 29.944C13.2531 41.0373 16.5865 46.584 23.2531 46.584C29.9198 46.584 33.2531 41.0373 33.2531 29.944C33.2531 18.8506 29.9198 13.304 23.2531 13.304C16.5865 13.304 13.2531 18.8506 13.2531 29.944ZM63.1212 1.94397H74.3212V57.944H61.5212V15.464L51.6012 18.184L48.4812 7.22397L63.1212 1.94397Z" fill="#FDFDFD"/>
<path d="M39.9731 51.144L39.177 50.5389L39.176 50.5401L39.9731 51.144ZM6.45312 51.144L5.65307 51.744L5.6599 51.7529L6.45312 51.144ZM6.45312 8.82397L5.65696 8.21888L5.65603 8.22011L6.45312 8.82397ZM39.9731 8.82397L39.1731 9.42401L39.1799 9.4329L39.9731 8.82397ZM39.176 50.5401C35.3817 55.5486 30.1153 58.064 23.2531 58.064V60.064C30.6842 60.064 36.5645 57.2993 40.7702 51.7478L39.176 50.5401ZM23.2531 58.064C16.3908 58.064 11.0948 55.5482 7.24634 50.535L5.6599 51.7529C9.91807 57.2997 15.8221 60.064 23.2531 60.064V58.064ZM7.25312 50.544C3.41901 45.4318 1.45312 38.5966 1.45312 29.944H-0.546876C-0.546876 38.8913 1.48724 46.1895 5.65312 51.744L7.25312 50.544ZM1.45312 29.944C1.45312 21.2907 3.41925 14.4847 7.25022 9.42783L5.65603 8.22011C1.48699 13.7232 -0.546876 20.9972 -0.546876 29.944H1.45312ZM7.24929 9.42905C11.0993 4.36323 16.3947 1.82397 23.2531 1.82397V-0.176033C15.8182 -0.176033 9.91361 2.61803 5.65696 8.21889L7.24929 9.42905ZM23.2531 1.82397C30.1114 1.82397 35.3772 4.3628 39.1731 9.42397L40.7731 8.22397C36.569 2.61847 30.6882 -0.176033 23.2531 -0.176033V1.82397ZM39.1799 9.4329C43.0616 14.4893 45.0531 21.2933 45.0531 29.944H47.0531C47.0531 20.9946 44.9913 13.7186 40.7663 8.21503L39.1799 9.4329ZM45.0531 29.944C45.0531 38.594 43.0618 45.4272 39.177 50.5389L40.7693 51.7491C44.9911 46.1941 47.0531 38.894 47.0531 29.944H45.0531ZM12.2531 29.944C12.2531 35.5582 13.0908 39.9352 14.896 42.9391C16.7501 46.0242 19.5818 47.584 23.2531 47.584V45.584C20.2578 45.584 18.0895 44.3704 16.6103 41.9089C15.0821 39.3661 14.2531 35.4231 14.2531 29.944H12.2531ZM23.2531 47.584C26.9245 47.584 29.7562 46.0242 31.6103 42.9391C33.4155 39.9352 34.2531 35.5582 34.2531 29.944H32.2531C32.2531 35.4231 31.4241 39.3661 29.896 41.9089C28.4167 44.3704 26.2484 45.584 23.2531 45.584V47.584ZM34.2531 29.944C34.2531 24.3298 33.4155 19.9527 31.6103 16.9489C29.7562 13.8637 26.9245 12.304 23.2531 12.304V14.304C26.2484 14.304 28.4167 15.5176 29.896 17.9791C31.4241 20.5219 32.2531 24.4648 32.2531 29.944H34.2531ZM23.2531 12.304C19.5818 12.304 16.7501 13.8637 14.896 16.9489C13.0908 19.9527 12.2531 24.3298 12.2531 29.944H14.2531C14.2531 24.4648 15.0821 20.5219 16.6103 17.9791C18.0895 15.5176 20.2578 14.304 23.2531 14.304V12.304ZM63.1212 1.94397V0.943966H62.9464L62.782 1.00327L63.1212 1.94397ZM74.3213 1.94397H75.3213V0.943966H74.3213V1.94397ZM74.3213 57.944V58.944H75.3213V57.944H74.3213ZM61.5212 57.944H60.5212V58.944H61.5212V57.944ZM61.5212 15.464H62.5212V14.1529L61.2568 14.4996L61.5212 15.464ZM51.6012 18.184L50.6395 18.4578L50.9106 19.4102L51.8657 19.1484L51.6012 18.184ZM48.4812 7.22397L48.142 6.28328L47.2639 6.59997L47.5195 7.49776L48.4812 7.22397ZM63.1212 2.94397H74.3213V0.943966H63.1212V2.94397ZM73.3213 1.94397V57.944H75.3213V1.94397H73.3213ZM74.3213 56.944H61.5212V58.944H74.3213V56.944ZM62.5212 57.944V15.464H60.5212V57.944H62.5212ZM61.2568 14.4996L51.3368 17.2196L51.8657 19.1484L61.7857 16.4284L61.2568 14.4996ZM52.563 17.9102L49.443 6.95018L47.5195 7.49776L50.6395 18.4578L52.563 17.9102ZM48.8205 8.16466L63.4605 2.88466L62.782 1.00327L48.142 6.28328L48.8205 8.16466Z" fill="#EFEFEF"/>
</svg>
