<svg width="88" height="60" viewBox="0 0 88 60" fill="none" xmlns="http://www.w3.org/2000/svg">
<path d="M39.6356 51.144C35.6356 56.424 30.0623 59.064 22.9156 59.064C15.769 59.064 10.169 56.424 6.11562 51.144C2.11562 45.8106 0.115622 38.744 0.115622 29.944C0.115622 21.144 2.11562 14.104 6.11562 8.82397C10.169 3.49063 15.769 0.823966 22.9156 0.823966C30.0623 0.823966 35.6356 3.49063 39.6356 8.82397C43.689 14.104 45.7156 21.144 45.7156 29.944C45.7156 38.744 43.689 45.8106 39.6356 51.144ZM12.9156 29.944C12.9156 41.0373 16.249 46.584 22.9156 46.584C29.5823 46.584 32.9156 41.0373 32.9156 29.944C32.9156 18.8506 29.5823 13.304 22.9156 13.304C16.249 13.304 12.9156 18.8506 12.9156 29.944ZM49.1037 57.944V48.664L67.9037 29.144C71.6904 25.2506 73.5837 21.944 73.5837 19.224C73.5837 17.464 73.0504 16.0506 71.9837 14.984C70.9171 13.864 69.4504 13.304 67.5837 13.304C63.8504 13.304 61.1037 15.3306 59.3437 19.384L48.5437 13.064C50.2504 9.06397 52.8104 6.02397 56.2237 3.94397C59.6371 1.86397 63.3704 0.823966 67.4237 0.823966C72.6504 0.823966 77.1037 2.45063 80.7837 5.70397C84.5171 8.90397 86.3837 13.224 86.3837 18.664C86.3837 24.584 83.4771 30.4506 77.6637 36.264L68.3837 45.624H87.1837V57.944H49.1037Z" fill="#FDFDFD"/>
<path d="M39.6356 51.144L38.8395 50.5389L38.8385 50.5401L39.6356 51.144ZM6.11562 51.144L5.31557 51.744L5.3224 51.7529L6.11562 51.144ZM6.11562 8.82397L5.31946 8.21888L5.31853 8.22011L6.11562 8.82397ZM39.6356 8.82397L38.8356 9.42401L38.8424 9.4329L39.6356 8.82397ZM38.8385 50.5401C35.0442 55.5486 29.7778 58.064 22.9156 58.064V60.064C30.3467 60.064 36.227 57.2993 40.4327 51.7478L38.8385 50.5401ZM22.9156 58.064C16.0533 58.064 10.7573 55.5482 6.90884 50.535L5.3224 51.7529C9.58057 57.2997 15.4846 60.064 22.9156 60.064V58.064ZM6.91562 50.544C3.0815 45.4318 1.11562 38.5966 1.11562 29.944H-0.884378C-0.884378 38.8913 1.14974 46.1895 5.31562 51.744L6.91562 50.544ZM1.11562 29.944C1.11562 21.2907 3.08175 14.4847 6.91271 9.42783L5.31853 8.22011C1.14949 13.7232 -0.884378 20.9972 -0.884378 29.944H1.11562ZM6.91178 9.42905C10.7618 4.36323 16.0572 1.82397 22.9156 1.82397V-0.176033C15.4807 -0.176033 9.57611 2.61803 5.31946 8.21889L6.91178 9.42905ZM22.9156 1.82397C29.7739 1.82397 35.0397 4.3628 38.8356 9.42397L40.4356 8.22397C36.2315 2.61847 30.3507 -0.176033 22.9156 -0.176033V1.82397ZM38.8424 9.4329C42.7241 14.4893 44.7156 21.2933 44.7156 29.944H46.7156C46.7156 20.9946 44.6538 13.7186 40.4288 8.21503L38.8424 9.4329ZM44.7156 29.944C44.7156 38.594 42.7243 45.4272 38.8395 50.5389L40.4318 51.7491C44.6536 46.1941 46.7156 38.894 46.7156 29.944H44.7156ZM11.9156 29.944C11.9156 35.5582 12.7533 39.9352 14.5585 42.9391C16.4126 46.0242 19.2443 47.584 22.9156 47.584V45.584C19.9203 45.584 17.752 44.3704 16.2728 41.9089C14.7446 39.3661 13.9156 35.4231 13.9156 29.944H11.9156ZM22.9156 47.584C26.587 47.584 29.4187 46.0242 31.2728 42.9391C33.078 39.9352 33.9156 35.5582 33.9156 29.944H31.9156C31.9156 35.4231 31.0866 39.3661 29.5585 41.9089C28.0792 44.3704 25.9109 45.584 22.9156 45.584V47.584ZM33.9156 29.944C33.9156 24.3298 33.078 19.9527 31.2728 16.9489C29.4187 13.8637 26.587 12.304 22.9156 12.304V14.304C25.9109 14.304 28.0792 15.5176 29.5585 17.9791C31.0866 20.5219 31.9156 24.4648 31.9156 29.944H33.9156ZM22.9156 12.304C19.2443 12.304 16.4126 13.8637 14.5585 16.9489C12.7533 19.9527 11.9156 24.3298 11.9156 29.944H13.9156C13.9156 24.4648 14.7446 20.5219 16.2728 17.9791C17.752 15.5176 19.9203 14.304 22.9156 14.304V12.304ZM49.1037 57.944H48.1037V58.944H49.1037V57.944ZM49.1037 48.664L48.3835 47.9703L48.1037 48.2607V48.664H49.1037ZM67.9037 29.144L67.1869 28.4467L67.1835 28.4503L67.9037 29.144ZM71.9837 14.984L71.2596 15.6736L71.268 15.6825L71.2766 15.6911L71.9837 14.984ZM59.3437 19.384L58.8387 20.2471L59.8119 20.8166L60.261 19.7823L59.3437 19.384ZM48.5437 13.064L47.624 12.6715L47.2782 13.482L48.0387 13.927L48.5437 13.064ZM56.2237 3.94397L56.7441 4.79791V4.79791L56.2237 3.94397ZM80.7837 5.70396L80.1214 6.45317L80.1271 6.45824L80.133 6.46322L80.7837 5.70396ZM77.6637 36.264L76.9566 35.5569L76.9536 35.5599L77.6637 36.264ZM68.3837 45.624L67.6736 44.9199L65.9841 46.624H68.3837V45.624ZM87.1837 45.624H88.1837V44.624H87.1837V45.624ZM87.1837 57.944V58.944H88.1837V57.944H87.1837ZM50.1037 57.944V48.664H48.1037V57.944H50.1037ZM49.824 49.3577L68.624 29.8377L67.1835 28.4503L48.3835 47.9703L49.824 49.3577ZM68.6206 29.8412C72.4323 25.9221 74.5837 22.3651 74.5837 19.224H72.5837C72.5837 21.5228 70.9485 24.5791 67.1869 28.4468L68.6206 29.8412ZM74.5837 19.224C74.5837 17.2465 73.9763 15.5623 72.6909 14.2769L71.2766 15.6911C72.1245 16.5389 72.5837 17.6814 72.5837 19.224H74.5837ZM72.7079 14.2943C71.4142 12.9359 69.6631 12.304 67.5837 12.304V14.304C69.2377 14.304 70.42 14.792 71.2596 15.6736L72.7079 14.2943ZM67.5837 12.304C65.5245 12.304 63.6916 12.8671 62.13 14.0193C60.579 15.1637 59.3565 16.8439 58.4265 18.9857L60.261 19.7823C61.091 17.8707 62.1218 16.5109 63.3175 15.6286C64.5026 14.7542 65.9096 14.304 67.5837 14.304V12.304ZM59.8488 18.5209L49.0488 12.2009L48.0387 13.927L58.8387 20.2471L59.8488 18.5209ZM49.4635 13.4564C51.096 9.63035 53.5246 6.75982 56.7441 4.79791L55.7034 3.09003C52.0963 5.28811 49.4049 8.49759 47.624 12.6715L49.4635 13.4564ZM56.7441 4.79791C59.9984 2.81484 63.5513 1.82397 67.4237 1.82397V-0.176033C63.1896 -0.176033 59.2758 0.913094 55.7034 3.09003L56.7441 4.79791ZM67.4237 1.82397C72.4235 1.82397 76.6366 3.37236 80.1214 6.45317L81.4461 4.95476C77.5709 1.5289 72.8774 -0.176033 67.4237 -0.176033V1.82397ZM80.133 6.46322C83.6194 9.45163 85.3838 13.481 85.3838 18.664H87.3838C87.3838 12.967 85.4147 8.3563 81.4345 4.94471L80.133 6.46322ZM85.3838 18.664C85.3838 24.2296 82.6566 29.8569 76.9566 35.5569L78.3709 36.9711C84.2975 31.0444 87.3838 24.9384 87.3838 18.664H85.3838ZM76.9536 35.5599L67.6736 44.9199L69.0939 46.328L78.3739 36.968L76.9536 35.5599ZM68.3837 46.624H87.1837V44.624H68.3837V46.624ZM86.1837 45.624V57.944H88.1837V45.624H86.1837ZM87.1837 56.944H49.1037V58.944H87.1837V56.944Z" fill="#EFEFEF"/>
</svg>
