<svg width="89" height="60" viewBox="0 0 89 60" fill="none" xmlns="http://www.w3.org/2000/svg">
<path d="M40.0434 51.144C36.0434 56.424 30.4701 59.064 23.3234 59.064C16.1768 59.064 10.5768 56.424 6.52344 51.144C2.52344 45.8106 0.523436 38.744 0.523436 29.944C0.523436 21.144 2.52344 14.104 6.52344 8.82397C10.5768 3.49063 16.1768 0.823966 23.3234 0.823966C30.4701 0.823966 36.0434 3.49063 40.0434 8.82397C44.0968 14.104 46.1234 21.144 46.1234 29.944C46.1234 38.744 44.0968 45.8106 40.0434 51.144ZM13.3234 29.944C13.3234 41.0373 16.6568 46.584 23.3234 46.584C29.9901 46.584 33.3234 41.0373 33.3234 29.944C33.3234 18.8506 29.9901 13.304 23.3234 13.304C16.6568 13.304 13.3234 18.8506 13.3234 29.944ZM76.5722 24.664C80.1455 25.8906 83.0255 27.8906 85.2122 30.664C87.3989 33.384 88.4922 36.6106 88.4922 40.344C88.4922 46.2106 86.5189 50.7973 82.5722 54.104C78.6255 57.4106 73.7989 59.064 68.0922 59.064C63.6655 59.064 59.6922 58.0506 56.1722 56.024C52.7055 53.9973 50.1455 51.0106 48.4922 47.064L59.5322 40.664C60.9189 44.6106 63.7722 46.584 68.0922 46.584C70.5989 46.584 72.4922 45.9973 73.7722 44.824C75.0522 43.6506 75.6922 42.1573 75.6922 40.344C75.6922 38.5306 75.0522 37.0373 73.7722 35.864C72.4922 34.6906 70.5989 34.104 68.0922 34.104H65.4522L60.5722 26.824L70.7322 13.944H50.2522V1.94397H86.2522V12.344L76.5722 24.664Z" fill="#FDFDFD"/>
<path d="M40.0434 51.144L39.2473 50.5389L39.2463 50.5401L40.0434 51.144ZM6.52344 51.144L5.72339 51.744L5.73022 51.7529L6.52344 51.144ZM6.52344 8.82397L5.72727 8.21888L5.72634 8.22011L6.52344 8.82397ZM40.0434 8.82397L39.2434 9.42401L39.2502 9.4329L40.0434 8.82397ZM39.2463 50.5401C35.452 55.5486 30.1857 58.064 23.3234 58.064V60.064C30.7546 60.064 36.6349 57.2993 40.8405 51.7478L39.2463 50.5401ZM23.3234 58.064C16.4611 58.064 11.1652 55.5482 7.31666 50.535L5.73022 51.7529C9.98838 57.2997 15.8924 60.064 23.3234 60.064V58.064ZM7.32344 50.544C3.48932 45.4318 1.52344 38.5966 1.52344 29.944H-0.476564C-0.476564 38.8913 1.55755 46.1895 5.72344 51.744L7.32344 50.544ZM1.52344 29.944C1.52344 21.2907 3.48957 14.4847 7.32053 9.42783L5.72634 8.22011C1.55731 13.7232 -0.476564 20.9972 -0.476564 29.944H1.52344ZM7.3196 9.42905C11.1696 4.36323 16.465 1.82397 23.3234 1.82397V-0.176033C15.8885 -0.176033 9.98392 2.61803 5.72727 8.21889L7.3196 9.42905ZM23.3234 1.82397C30.1817 1.82397 35.4476 4.3628 39.2434 9.42397L40.8434 8.22397C36.6393 2.61847 30.7585 -0.176033 23.3234 -0.176033V1.82397ZM39.2502 9.4329C43.1319 14.4893 45.1234 21.2933 45.1234 29.944H47.1234C47.1234 20.9946 45.0616 13.7186 40.8367 8.21503L39.2502 9.4329ZM45.1234 29.944C45.1234 38.594 43.1322 45.4272 39.2473 50.5389L40.8396 51.7491C45.0614 46.1941 47.1234 38.894 47.1234 29.944H45.1234ZM12.3234 29.944C12.3234 35.5582 13.1611 39.9352 14.9663 42.9391C16.8204 46.0242 19.6521 47.584 23.3234 47.584V45.584C20.3281 45.584 18.1598 44.3704 16.6806 41.9089C15.1524 39.3661 14.3234 35.4231 14.3234 29.944H12.3234ZM23.3234 47.584C26.9948 47.584 29.8265 46.0242 31.6806 42.9391C33.4858 39.9352 34.3234 35.5582 34.3234 29.944H32.3234C32.3234 35.4231 31.4944 39.3661 29.9663 41.9089C28.487 44.3704 26.3187 45.584 23.3234 45.584V47.584ZM34.3234 29.944C34.3234 24.3298 33.4858 19.9527 31.6806 16.9489C29.8265 13.8637 26.9948 12.304 23.3234 12.304V14.304C26.3187 14.304 28.487 15.5176 29.9663 17.9791C31.4944 20.5219 32.3234 24.4648 32.3234 29.944H34.3234ZM23.3234 12.304C19.6521 12.304 16.8204 13.8637 14.9663 16.9489C13.1611 19.9527 12.3234 24.3298 12.3234 29.944H14.3234C14.3234 24.4648 15.1524 20.5219 16.6806 17.9791C18.1598 15.5176 20.3281 14.304 23.3234 14.304V12.304ZM76.5722 24.664L75.7859 24.0461L74.9163 25.1528L76.2475 25.6098L76.5722 24.664ZM85.2122 30.664L84.4269 31.2831L84.4328 31.2905L85.2122 30.664ZM82.5722 54.104L81.93 53.3374L82.5722 54.104ZM56.1722 56.024L55.6675 56.8873L55.6732 56.8906L56.1722 56.024ZM48.4922 47.064L47.9907 46.1988L47.2302 46.6397L47.5698 47.4504L48.4922 47.064ZM59.5322 40.664L60.4756 40.3325L60.0754 39.1932L59.0307 39.7988L59.5322 40.664ZM73.7722 44.824L74.4479 45.5611L73.7722 44.824ZM73.7722 35.864L74.4479 35.1268V35.1268L73.7722 35.864ZM65.4522 34.104L64.6215 34.6608L64.9186 35.104H65.4522V34.104ZM60.5722 26.824L59.7871 26.2046L59.3362 26.7761L59.7415 27.3808L60.5722 26.824ZM70.7322 13.944L71.5173 14.5633L72.7947 12.944H70.7322V13.944ZM50.2522 13.944H49.2522V14.944H50.2522V13.944ZM50.2522 1.94397V0.943966H49.2522V1.94397H50.2522ZM86.2522 1.94397H87.2522V0.943966H86.2522V1.94397ZM86.2522 12.344L87.0385 12.9618L87.2522 12.6898V12.344H86.2522ZM76.2475 25.6098C79.6524 26.7786 82.3676 28.6713 84.4269 31.2831L85.9975 30.0448C83.6834 27.11 80.6387 25.0026 76.8969 23.7181L76.2475 25.6098ZM84.4328 31.2905C86.4664 33.8201 87.4922 36.8215 87.4922 40.344H89.4922C89.4922 36.3998 88.3313 32.9479 85.9916 30.0374L84.4328 31.2905ZM87.4922 40.344C87.4922 45.961 85.6167 50.2486 81.93 53.3374L83.2144 54.8705C87.421 51.346 89.4922 46.4603 89.4922 40.344H87.4922ZM81.93 53.3374C78.1831 56.4767 73.5912 58.064 68.0922 58.064V60.064C74.0065 60.064 79.0679 58.3446 83.2144 54.8705L81.93 53.3374ZM68.0922 58.064C63.8244 58.064 60.0259 57.0889 56.6712 55.1573L55.6732 56.8906C59.3584 59.0124 63.5066 60.064 68.0922 60.064V58.064ZM56.6769 55.1607C53.4101 53.2509 50.9899 50.4382 49.4145 46.6776L47.5698 47.4504C49.3011 51.5831 52.0009 54.7437 55.6675 56.8873L56.6769 55.1607ZM48.9937 47.9291L60.0337 41.5291L59.0307 39.7988L47.9907 46.1988L48.9937 47.9291ZM58.5887 40.9955C59.3373 43.126 60.5099 44.7967 62.1434 45.9264C63.7742 47.0543 65.7791 47.584 68.0922 47.584V45.584C66.0852 45.584 64.5035 45.127 63.281 44.2815C62.0612 43.4379 61.1138 42.1486 60.4756 40.3325L58.5887 40.9955ZM68.0922 47.584C70.7391 47.584 72.9159 46.9654 74.4479 45.5611L73.0965 44.0868C72.0684 45.0292 70.4586 45.584 68.0922 45.584V47.584ZM74.4479 45.5611C75.9447 44.1891 76.6922 42.4236 76.6922 40.344H74.6922C74.6922 41.891 74.1597 43.1122 73.0965 44.0868L74.4479 45.5611ZM76.6922 40.344C76.6922 38.2644 75.9447 36.4988 74.4479 35.1268L73.0965 36.6011C74.1597 37.5758 74.6922 38.7969 74.6922 40.344H76.6922ZM74.4479 35.1268C72.9159 33.7225 70.7391 33.104 68.0922 33.104V35.104C70.4586 35.104 72.0684 35.6588 73.0965 36.6011L74.4479 35.1268ZM68.0922 33.104H65.4522V35.104H68.0922V33.104ZM66.2828 33.5472L61.4028 26.2672L59.7415 27.3808L64.6215 34.6608L66.2828 33.5472ZM61.3573 27.4433L71.5173 14.5633L69.9471 13.3246L59.7871 26.2046L61.3573 27.4433ZM70.7322 12.944H50.2522V14.944H70.7322V12.944ZM51.2522 13.944V1.94397H49.2522V13.944H51.2522ZM50.2522 2.94397H86.2522V0.943966H50.2522V2.94397ZM85.2522 1.94397V12.344H87.2522V1.94397H85.2522ZM85.4659 11.7261L75.7859 24.0461L77.3585 25.2818L87.0385 12.9618L85.4659 11.7261Z" fill="#EFEFEF"/>
</svg>
