<svg width="95" height="60" viewBox="0 0 95 60" fill="none" xmlns="http://www.w3.org/2000/svg">
<path d="M40.1216 51.144C36.1216 56.424 30.5482 59.064 23.4016 59.064C16.2549 59.064 10.6549 56.424 6.60156 51.144C2.60156 45.8106 0.601561 38.744 0.601561 29.944C0.601561 21.144 2.60156 14.104 6.60156 8.82397C10.6549 3.49063 16.2549 0.823966 23.4016 0.823966C30.5482 0.823966 36.1216 3.49063 40.1216 8.82397C44.1749 14.104 46.2016 21.144 46.2016 29.944C46.2016 38.744 44.1749 45.8106 40.1216 51.144ZM13.4016 29.944C13.4016 41.0373 16.7349 46.584 23.4016 46.584C30.0682 46.584 33.4016 41.0373 33.4016 29.944C33.4016 18.8506 30.0682 13.304 23.4016 13.304C16.7349 13.304 13.4016 18.8506 13.4016 29.944ZM94.9922 37.144V48.984H89.3922V57.944H76.4322V48.984H50.9922V37.144L68.8322 1.94397H82.5922L64.7522 37.144H76.4322V25.144H89.3922V37.144H94.9922Z" fill="#FDFDFD"/>
<path d="M40.1216 51.144L39.3254 50.5389L39.3245 50.5401L40.1216 51.144ZM6.60156 51.144L5.80151 51.744L5.80834 51.7529L6.60156 51.144ZM6.60156 8.82397L5.8054 8.21888L5.80447 8.22011L6.60156 8.82397ZM40.1216 8.82397L39.3215 9.42401L39.3283 9.4329L40.1216 8.82397ZM39.3245 50.5401C35.5301 55.5486 30.2638 58.064 23.4016 58.064V60.064C30.8327 60.064 36.713 57.2993 40.9187 51.7478L39.3245 50.5401ZM23.4016 58.064C16.5392 58.064 11.2433 55.5482 7.39478 50.535L5.80834 51.7529C10.0665 57.2997 15.9706 60.064 23.4016 60.064V58.064ZM7.40156 50.544C3.56744 45.4318 1.60156 38.5966 1.60156 29.944H-0.398439C-0.398439 38.8913 1.63568 46.1895 5.80156 51.744L7.40156 50.544ZM1.60156 29.944C1.60156 21.2907 3.56769 14.4847 7.39865 9.42783L5.80447 8.22011C1.63543 13.7232 -0.398439 20.9972 -0.398439 29.944H1.60156ZM7.39772 9.42905C11.2477 4.36323 16.5431 1.82397 23.4016 1.82397V-0.176033C15.9666 -0.176033 10.062 2.61803 5.8054 8.21889L7.39772 9.42905ZM23.4016 1.82397C30.2598 1.82397 35.5257 4.3628 39.3216 9.42397L40.9216 8.22397C36.7174 2.61847 30.8366 -0.176033 23.4016 -0.176033V1.82397ZM39.3283 9.4329C43.21 14.4893 45.2016 21.2933 45.2016 29.944H47.2016C47.2016 20.9946 45.1398 13.7186 40.9148 8.21503L39.3283 9.4329ZM45.2016 29.944C45.2016 38.594 43.2103 45.4272 39.3254 50.5389L40.9177 51.7491C45.1395 46.1941 47.2016 38.894 47.2016 29.944H45.2016ZM12.4016 29.944C12.4016 35.5582 13.2392 39.9352 15.0444 42.9391C16.8985 46.0242 19.7302 47.584 23.4016 47.584V45.584C20.4063 45.584 18.238 44.3704 16.7587 41.9089C15.2306 39.3661 14.4016 35.4231 14.4016 29.944H12.4016ZM23.4016 47.584C27.0729 47.584 29.9046 46.0242 31.7587 42.9391C33.5639 39.9352 34.4016 35.5582 34.4016 29.944H32.4016C32.4016 35.4231 31.5726 39.3661 30.0444 41.9089C28.5652 44.3704 26.3969 45.584 23.4016 45.584V47.584ZM34.4016 29.944C34.4016 24.3298 33.5639 19.9527 31.7587 16.9489C29.9046 13.8637 27.0729 12.304 23.4016 12.304V14.304C26.3969 14.304 28.5652 15.5176 30.0444 17.9791C31.5726 20.5219 32.4016 24.4648 32.4016 29.944H34.4016ZM23.4016 12.304C19.7302 12.304 16.8985 13.8637 15.0444 16.9489C13.2392 19.9527 12.4016 24.3298 12.4016 29.944H14.4016C14.4016 24.4648 15.2306 20.5219 16.7587 17.9791C18.238 15.5176 20.4063 14.304 23.4016 14.304V12.304ZM94.9922 37.144H95.9922V36.144H94.9922V37.144ZM94.9922 48.984V49.984H95.9922V48.984H94.9922ZM89.3922 48.984V47.984H88.3922V48.984H89.3922ZM89.3922 57.944V58.944H90.3922V57.944H89.3922ZM76.4322 57.944H75.4322V58.944H76.4322V57.944ZM76.4322 48.984H77.4322V47.984H76.4322V48.984ZM50.9922 48.984H49.9922V49.984H50.9922V48.984ZM50.9922 37.144L50.1002 36.6919L49.9922 36.905V37.144H50.9922ZM68.8322 1.94397V0.943966H68.2179L67.9402 1.49189L68.8322 1.94397ZM82.5922 1.94397L83.4842 2.39604L84.2201 0.943966H82.5922V1.94397ZM64.7522 37.144L63.8602 36.6919L63.1243 38.144H64.7522V37.144ZM76.4322 37.144V38.144H77.4322V37.144H76.4322ZM76.4322 25.144V24.144H75.4322V25.144H76.4322ZM89.3922 25.144H90.3922V24.144H89.3922V25.144ZM89.3922 37.144H88.3922V38.144H89.3922V37.144ZM93.9922 37.144V48.984H95.9922V37.144H93.9922ZM94.9922 47.984H89.3922V49.984H94.9922V47.984ZM88.3922 48.984V57.944H90.3922V48.984H88.3922ZM89.3922 56.944H76.4322V58.944H89.3922V56.944ZM77.4322 57.944V48.984H75.4322V57.944H77.4322ZM76.4322 47.984H50.9922V49.984H76.4322V47.984ZM51.9922 48.984V37.144H49.9922V48.984H51.9922ZM51.8842 37.596L69.7242 2.39604L67.9402 1.49189L50.1002 36.6919L51.8842 37.596ZM68.8322 2.94397H82.5922V0.943966H68.8322V2.94397ZM81.7002 1.49189L63.8602 36.6919L65.6442 37.596L83.4842 2.39604L81.7002 1.49189ZM64.7522 38.144H76.4322V36.144H64.7522V38.144ZM77.4322 37.144V25.144H75.4322V37.144H77.4322ZM76.4322 26.144H89.3922V24.144H76.4322V26.144ZM88.3922 25.144V37.144H90.3922V25.144H88.3922ZM89.3922 38.144H94.9922V36.144H89.3922V38.144Z" fill="#EFEFEF"/>
</svg>
