<svg width="81" height="82" viewBox="0 0 81 82" fill="none" xmlns="http://www.w3.org/2000/svg">
<circle cx="40.5" cy="41.444" r="40.5" fill="#FF8A00"/>
<g clip-path="url(#clip0_509_2)">
<path d="M60.0275 26.5259L52.5443 23.4083C51.7235 23.0664 50.782 23.0665 49.9612 23.4084L46.3684 24.9049C46.0472 25.0388 45.8953 25.4075 46.0291 25.7286C46.1629 26.0498 46.5315 26.2018 46.8528 26.0679L50.4456 24.5713C50.9584 24.3577 51.5468 24.3576 52.06 24.5713L59.5427 27.6887C60.2705 27.9923 60.7409 28.675 60.7409 29.4277V56.3657C60.7409 57.4133 59.8412 58.2655 58.7354 58.2655H57.7141C57.3662 58.2655 57.0843 58.5474 57.0843 58.8953C57.0843 59.2433 57.3662 59.5252 57.7141 59.5252H58.7354C60.5358 59.5252 62.0007 58.1079 62.0007 56.3657V29.4277C62.0007 28.1649 61.2262 27.026 60.0275 26.5259Z" fill="white"/>
<path d="M54.968 58.2655H44.3843C44.8201 57.7702 45.0587 57.1417 45.0587 56.4767C45.0587 55.8129 44.8184 55.2046 44.4208 54.733C44.6715 54.6051 44.9036 54.4377 45.1086 54.2328C45.6202 53.7211 45.9019 53.0408 45.9019 52.3169C45.9019 51.6269 45.6422 50.9967 45.216 50.5178C45.427 50.3983 45.6236 50.2501 45.7996 50.0739C46.3112 49.5624 46.593 48.882 46.593 48.158C46.593 47.47 46.3349 46.8414 45.9111 46.3629C46.1257 46.2425 46.3256 46.0925 46.5048 45.9137C47.0161 45.4012 47.2976 44.721 47.2976 43.9982C47.2976 42.5038 46.0822 41.288 44.5882 41.288H41.7638V29.4277C41.7638 28.6749 42.2342 27.9922 42.9617 27.6887L44.1073 27.2117C44.4285 27.078 44.5804 26.7093 44.4467 26.3881C44.3129 26.0669 43.9442 25.9147 43.623 26.0487L42.477 26.5259C41.2785 27.0259 40.504 28.1649 40.504 29.4277V41.2881H37.8722C38.7486 38.5186 38.674 35.6283 37.6513 32.2737C37.4959 31.7657 37.1868 31.3306 36.7572 31.0154C36.3302 30.7021 35.8241 30.5364 35.2936 30.5364C34.6101 30.5364 33.9746 30.8094 33.5039 31.3049C33.0335 31.8005 32.794 32.4491 32.8295 33.1314C33.0264 36.9189 31.2794 38.2225 28.8614 40.0269C28.0653 40.6209 27.1952 41.2706 26.3401 42.0674V41.2418C26.3401 40.8939 26.0581 40.6119 25.7102 40.6119H19.6299C19.2819 40.6119 19 40.8939 19 41.2418V59.1061C19 59.4541 19.2819 59.736 19.6299 59.736H25.7104C26.0583 59.736 26.3402 59.4541 26.3402 59.1061V57.5215C27.5366 57.6353 28.4104 57.8737 29.2593 58.5244C29.8166 58.9515 30.5036 59.1867 31.1937 59.1867H42.3024C42.7562 59.408 43.2594 59.5252 43.7694 59.5252H54.9679C55.3159 59.5252 55.5978 59.2433 55.5978 58.8953C55.5978 58.5474 55.3158 58.2655 54.968 58.2655ZM30.0256 57.5244C28.8379 56.6143 27.5686 56.3614 26.3402 56.2554V48.9004C26.3402 48.5525 26.0583 48.2705 25.7104 48.2705C25.3624 48.2705 25.0805 48.5525 25.0805 48.9004V58.4763H20.2598V41.8718H25.0805V46.1559C25.0805 46.5039 25.3624 46.7858 25.7104 46.7858C26.0583 46.7858 26.3402 46.5039 26.3402 46.1559V43.8568C27.3939 42.6941 28.5221 41.8521 29.615 41.0366C32.0345 39.2312 34.3197 37.5258 34.0878 33.0661C34.0704 32.7323 34.1876 32.4149 34.4179 32.1724C34.6481 31.9298 34.9592 31.7963 35.2938 31.7963C35.5544 31.7963 35.8028 31.8775 36.0121 32.0312C36.2212 32.1845 36.3714 32.3958 36.4467 32.6418C37.4883 36.0587 37.472 38.9335 36.3953 41.6889C36.3196 41.8828 36.3445 42.1015 36.4619 42.2734C36.5792 42.4453 36.7739 42.5481 36.982 42.5481H44.5884C45.3877 42.5481 46.038 43.1987 46.038 43.9985C46.038 44.3853 45.8871 44.7495 45.6141 45.0232C45.3394 45.2972 44.9753 45.4481 44.5884 45.4481H42.0008C41.6529 45.4481 41.3709 45.73 41.3709 46.078C41.3709 46.4259 41.6529 46.7078 42.0008 46.7078H43.8837C44.683 46.7078 45.3333 47.3585 45.3333 48.1583C45.3333 48.5458 45.1826 48.9098 44.9088 49.1835C44.6352 49.4572 44.2712 49.6079 43.8837 49.6079H42.0008C41.6529 49.6079 41.3709 49.8898 41.3709 50.2378C41.3709 50.5857 41.6529 50.8677 42.0008 50.8677H43.1925C43.9918 50.8677 44.6421 51.518 44.6421 52.3172C44.6421 52.7046 44.4914 53.0687 44.2177 53.3424C43.9434 53.6167 43.5793 53.7677 43.1925 53.7677H42.3493H41.3095C40.9616 53.7677 40.6796 54.0496 40.6796 54.3975C40.6796 54.7455 40.9616 55.0274 41.3095 55.0274H42.3493C43.1486 55.0274 43.7989 55.6777 43.7989 56.477C43.7989 56.8643 43.648 57.2288 43.375 57.5024C43.1192 57.7577 42.7151 57.9205 42.4127 57.9259C42.3917 57.9262 31.1937 57.9274 31.1937 57.9274C30.7791 57.927 30.3643 57.784 30.0256 57.5244Z" fill="white"/>
<path d="M53.5255 29.7076C53.5255 28.384 52.4486 27.3071 51.125 27.3071C49.8015 27.3071 48.7246 28.384 48.7246 29.7076C48.7246 31.0312 49.8015 32.108 51.125 32.108C52.4486 32.108 53.5255 31.0312 53.5255 29.7076ZM49.9844 29.7076C49.9844 29.0786 50.4961 28.5669 51.125 28.5669C51.754 28.5669 52.2657 29.0786 52.2657 29.7076C52.2657 30.3365 51.754 30.8482 51.125 30.8482C50.4961 30.8482 49.9844 30.3366 49.9844 29.7076Z" fill="white"/>
<path d="M51.5194 51.2H50.3897C49.7947 51.2 49.3106 50.7158 49.3106 50.1208C49.3106 49.7729 49.0287 49.4909 48.6807 49.4909C48.3328 49.4909 48.0509 49.7729 48.0509 50.1208C48.0509 51.3887 49.0651 52.4234 50.3247 52.4581V53.8521C50.3247 54.2 50.6066 54.4819 50.9545 54.4819C51.3025 54.4819 51.5844 54.2 51.5844 53.8521V52.4581C52.8441 52.4234 53.8583 51.3887 53.8583 50.1208V49.2488C53.8583 48.4398 53.3414 47.7283 52.5719 47.4782L49.7265 46.554C49.4778 46.4731 49.3106 46.2432 49.3106 45.9816V44.733C49.3106 44.2498 49.7038 43.8566 50.187 43.8566H51.7222C52.2055 43.8566 52.5986 44.2498 52.5986 44.733C52.5986 45.081 52.8806 45.3629 53.2285 45.3629C53.5764 45.3629 53.8584 45.081 53.8584 44.733C53.8584 43.5552 52.9001 42.5968 51.7222 42.5968H51.5844V41.2045C51.5844 40.8566 51.3025 40.5746 50.9545 40.5746C50.6066 40.5746 50.3247 40.8566 50.3247 41.2045V42.5968H50.1869C49.0091 42.5968 48.0508 43.5551 48.0508 44.733V45.9816C48.0508 46.7907 48.5677 47.5021 49.3372 47.7521L52.1825 48.6764C52.4313 48.7572 52.5985 48.9873 52.5985 49.2488V50.1208C52.5986 50.7158 52.1145 51.2 51.5194 51.2Z" fill="white"/>
</g>
<defs>
<clipPath id="clip0_509_2">
<rect width="43" height="43" fill="white" transform="translate(19 19.944)"/>
</clipPath>
</defs>
</svg>
