<svg width="56" height="56" viewBox="0 0 56 56" fill="none" xmlns="http://www.w3.org/2000/svg">
<circle cx="28" cy="28" r="28" fill="#FF8A00"/>
<path d="M18 24.8393L28.1697 30.0725C28.2717 30.125 28.385 30.1524 28.5 30.1524C28.615 30.1524 28.7283 30.125 28.8303 30.0725L39 24.8403V33.9306C39.0001 34.7146 38.6969 35.4689 38.1527 36.0388C37.6085 36.6087 36.8645 36.9509 36.0734 36.9953L35.8977 37H21.1023C20.3099 37.0001 19.5475 36.7001 18.9715 36.1616C18.3955 35.6232 18.0496 34.8871 18.0048 34.1043L18 33.9306V24.8393ZM21.1023 20H35.8977C36.6901 19.9999 37.4525 20.2999 38.0285 20.8384C38.6045 21.3768 38.9504 22.1129 38.9952 22.8957L39 23.0694V23.2432L28.5 28.6454L18 23.2432V23.0694C17.9999 22.2854 18.3031 21.5311 18.8473 20.9612C19.3915 20.3913 20.1355 20.0491 20.9266 20.0047L21.1023 20H35.8977H21.1023Z" fill="white"/>
</svg>
