<svg width="56" height="56" viewBox="0 0 56 56" fill="none" xmlns="http://www.w3.org/2000/svg">
<circle cx="28" cy="28" r="28" fill="#FF8A00"/>
<path d="M28.5 17C22.1493 17 17 22.1493 17 28.5C17 34.8507 22.1493 40 28.5 40C34.8507 40 40 34.8507 40 28.5C40 22.1493 34.8507 17 28.5 17ZM33.0307 32.0347L32.2965 33.0358C32.2806 33.0576 32.2605 33.0761 32.2373 33.0901C32.2142 33.1041 32.1886 33.1133 32.1619 33.1174C32.1351 33.1215 32.1079 33.1202 32.0817 33.1137C32.0554 33.1072 32.0308 33.0955 32.009 33.0795L27.7633 29.9837C27.7368 29.9647 27.7153 29.9396 27.7006 29.9106C27.6858 29.8816 27.6783 29.8494 27.6786 29.8169V22.75C27.6786 22.6371 27.771 22.5446 27.8839 22.5446H29.1186C29.2316 22.5446 29.324 22.6371 29.324 22.75V29.1032L32.9845 31.7498C33.0769 31.814 33.0974 31.9423 33.0307 32.0347Z" fill="white"/>
</svg>
