<svg width="56" height="56" viewBox="0 0 56 56" fill="none" xmlns="http://www.w3.org/2000/svg">
<circle cx="28" cy="28" r="28" fill="#FF8A00"/>
<path d="M28.5 18C30.7543 18 32.9163 18.9031 34.5104 20.5105C36.1045 22.118 37 24.2982 37 26.5715C37 30.6672 34.2587 34.4373 28.8797 37.8887C28.7661 37.9614 28.6345 38 28.5 38C28.3655 38 28.2338 37.9614 28.1203 37.8887C22.7412 34.4373 20 30.6672 20 26.5715C20 24.2982 20.8955 22.118 22.4896 20.5105C24.0837 18.9031 26.2457 18 28.5 18ZM28.5 23.7143C27.7486 23.7143 27.0279 24.0154 26.4965 24.5512C25.9652 25.087 25.6667 25.8137 25.6667 26.5715C25.6667 27.3293 25.9652 28.056 26.4965 28.5918C27.0279 29.1276 27.7486 29.4287 28.5 29.4287C29.2514 29.4287 29.9721 29.1276 30.5035 28.5918C31.0348 28.056 31.3333 27.3293 31.3333 26.5715C31.3333 25.8137 31.0348 25.087 30.5035 24.5512C29.9721 24.0154 29.2514 23.7143 28.5 23.7143Z" fill="white"/>
</svg>
