<svg width="56" height="56" viewBox="0 0 56 56" fill="none" xmlns="http://www.w3.org/2000/svg">
<circle cx="28" cy="28" r="28" fill="#FF8A00"/>
<path d="M37.9887 33.7837C37.941 33.4887 37.7561 33.2367 37.4792 33.0869L33.3835 30.6731L33.3498 30.6542C33.1781 30.5682 32.9884 30.5242 32.7964 30.5256C32.4532 30.5256 32.1255 30.6556 31.8981 30.8837L30.6892 32.0935C30.6375 32.1426 30.4689 32.2138 30.4178 32.2164C30.4038 32.2152 29.0112 32.1149 26.4475 29.5502C23.8884 26.9909 23.7798 25.5936 23.7789 25.5936C23.7804 25.5222 23.8506 25.3541 23.9006 25.3021L24.9315 24.2712C25.2946 23.9071 25.4035 23.3035 25.1881 22.836L22.9115 18.551C22.7461 18.2103 22.4246 18 22.0681 18C21.8158 18 21.5723 18.1046 21.3821 18.2947L18.572 21.0992C18.3026 21.3673 18.0706 21.836 18.02 22.2132C17.9955 22.3935 17.4969 26.6982 23.3969 32.6008C28.4058 37.6105 32.3115 37.9997 33.3901 37.9997C33.5214 38.0014 33.6528 37.9947 33.7832 37.9795C34.1592 37.9292 34.6272 37.6977 34.895 37.4293L37.7027 34.6211C37.9318 34.3907 38.0364 34.0863 37.9887 33.7837Z" fill="white"/>
</svg>
