<svg width="216" height="297" viewBox="0 0 216 297" fill="none" xmlns="http://www.w3.org/2000/svg">
<path d="M69.596 132.233C69.596 133.514 68.5574 134.553 67.2761 134.553C65.9949 134.553 64.9563 133.514 64.9563 132.233C64.9563 130.952 65.9949 129.913 67.2761 129.913C68.5574 129.913 69.596 130.952 69.596 132.233Z" fill="#EDEDED"/>
<path d="M102.075 132.233C102.075 133.514 101.036 134.553 99.755 134.553C98.4737 134.553 97.4351 133.514 97.4351 132.233C97.4351 130.952 98.4737 129.913 99.755 129.913C101.036 129.913 102.075 130.952 102.075 132.233Z" fill="#EDEDED"/>
<path d="M53.3572 132.234C53.3572 133.515 52.3186 134.553 51.0373 134.553C49.7561 134.553 48.7174 133.515 48.7174 132.234C48.7174 130.952 49.7561 129.914 51.0373 129.914C52.3186 129.914 53.3572 130.952 53.3572 132.234Z" fill="#EDEDED"/>
<path d="M85.8354 132.233C85.8354 133.514 84.7968 134.553 83.5156 134.553C82.2343 134.553 81.1957 133.514 81.1957 132.233C81.1957 130.952 82.2343 129.913 83.5156 129.913C84.7968 129.913 85.8354 130.952 85.8354 132.233Z" fill="#EDEDED"/>
<path d="M118.314 132.233C118.314 133.514 117.275 134.553 115.994 134.553C114.713 134.553 113.674 133.514 113.674 132.233C113.674 130.952 114.713 129.913 115.994 129.913C117.275 129.913 118.314 130.952 118.314 132.233Z" fill="#EDEDED"/>
<path d="M69.5958 164.711C69.5958 165.992 68.5572 167.031 67.2759 167.031C65.9947 167.031 64.9561 165.992 64.9561 164.711C64.9561 163.43 65.9947 162.391 67.2759 162.391C68.5572 162.391 69.5958 163.43 69.5958 164.711Z" fill="#EDEDED"/>
<path d="M102.075 164.711C102.075 165.992 101.036 167.031 99.7548 167.031C98.4736 167.031 97.4349 165.992 97.4349 164.711C97.4349 163.43 98.4736 162.391 99.7548 162.391C101.036 162.391 102.075 163.43 102.075 164.711Z" fill="#EDEDED"/>
<path d="M53.357 164.711C53.357 165.992 52.3184 167.031 51.0371 167.031C49.7559 167.031 48.7173 165.992 48.7173 164.711C48.7173 163.43 49.7559 162.391 51.0371 162.391C52.3184 162.391 53.357 163.43 53.357 164.711Z" fill="#EDEDED"/>
<path d="M85.8352 164.711C85.8352 165.992 84.7966 167.031 83.5154 167.031C82.2341 167.031 81.1955 165.992 81.1955 164.711C81.1955 163.43 82.2341 162.391 83.5154 162.391C84.7966 162.391 85.8352 163.43 85.8352 164.711Z" fill="#EDEDED"/>
<path d="M118.314 164.711C118.314 165.992 117.275 167.031 115.994 167.031C114.713 167.031 113.674 165.992 113.674 164.711C113.674 163.43 114.713 162.391 115.994 162.391C117.275 162.391 118.314 163.43 118.314 164.711Z" fill="#EDEDED"/>
<path d="M69.5958 148.472C69.5958 149.753 68.5572 150.792 67.2759 150.792C65.9947 150.792 64.9561 149.753 64.9561 148.472C64.9561 147.191 65.9947 146.152 67.2759 146.152C68.5572 146.152 69.5958 147.191 69.5958 148.472Z" fill="#EDEDED"/>
<path d="M102.075 148.472C102.075 149.753 101.036 150.792 99.7548 150.792C98.4736 150.792 97.4349 149.753 97.4349 148.472C97.4349 147.191 98.4736 146.152 99.7548 146.152C101.036 146.152 102.075 147.191 102.075 148.472Z" fill="#EDEDED"/>
<path d="M53.357 148.473C53.357 149.754 52.3184 150.792 51.0371 150.792C49.7559 150.792 48.7173 149.754 48.7173 148.473C48.7173 147.191 49.7559 146.153 51.0371 146.153C52.3184 146.153 53.357 147.191 53.357 148.473Z" fill="#EDEDED"/>
<path d="M85.8352 148.472C85.8352 149.753 84.7966 150.792 83.5154 150.792C82.2341 150.792 81.1955 149.753 81.1955 148.472C81.1955 147.191 82.2341 146.152 83.5154 146.152C84.7966 146.152 85.8352 147.191 85.8352 148.472Z" fill="#EDEDED"/>
<path d="M118.314 148.472C118.314 149.753 117.275 150.792 115.994 150.792C114.713 150.792 113.674 149.753 113.674 148.472C113.674 147.191 114.713 146.152 115.994 146.152C117.275 146.152 118.314 147.191 118.314 148.472Z" fill="#EDEDED"/>
<path d="M69.5958 180.95C69.5958 182.231 68.5572 183.27 67.2759 183.27C65.9947 183.27 64.9561 182.231 64.9561 180.95C64.9561 179.669 65.9947 178.63 67.2759 178.63C68.5572 178.63 69.5958 179.669 69.5958 180.95Z" fill="#EDEDED"/>
<path d="M102.075 180.95C102.075 182.231 101.036 183.27 99.7548 183.27C98.4736 183.27 97.4349 182.231 97.4349 180.95C97.4349 179.669 98.4736 178.63 99.7548 178.63C101.036 178.63 102.075 179.669 102.075 180.95Z" fill="#EDEDED"/>
<path d="M53.357 180.95C53.357 182.231 52.3184 183.27 51.0371 183.27C49.7559 183.27 48.7173 182.231 48.7173 180.95C48.7173 179.669 49.7559 178.63 51.0371 178.63C52.3184 178.63 53.357 179.669 53.357 180.95Z" fill="#EDEDED"/>
<path d="M85.8352 180.95C85.8352 182.231 84.7966 183.27 83.5154 183.27C82.2341 183.27 81.1955 182.231 81.1955 180.95C81.1955 179.669 82.2341 178.63 83.5154 178.63C84.7966 178.63 85.8352 179.669 85.8352 180.95Z" fill="#EDEDED"/>
<path d="M118.314 180.95C118.314 182.231 117.275 183.27 115.994 183.27C114.713 183.27 113.674 182.231 113.674 180.95C113.674 179.669 114.713 178.63 115.994 178.63C117.275 178.63 118.314 179.669 118.314 180.95Z" fill="#EDEDED"/>
<path d="M69.5958 197.189C69.5958 198.47 68.5572 199.509 67.2759 199.509C65.9947 199.509 64.9561 198.47 64.9561 197.189C64.9561 195.908 65.9947 194.869 67.2759 194.869C68.5572 194.869 69.5958 195.908 69.5958 197.189Z" fill="#EDEDED"/>
<path d="M102.075 197.189C102.075 198.47 101.036 199.509 99.7548 199.509C98.4736 199.509 97.4349 198.47 97.4349 197.189C97.4349 195.908 98.4736 194.869 99.7548 194.869C101.036 194.869 102.075 195.908 102.075 197.189Z" fill="#EDEDED"/>
<path d="M53.357 197.189C53.357 198.47 52.3184 199.509 51.0371 199.509C49.7559 199.509 48.7173 198.47 48.7173 197.189C48.7173 195.908 49.7559 194.869 51.0371 194.869C52.3184 194.869 53.357 195.908 53.357 197.189Z" fill="#EDEDED"/>
<path d="M85.8352 197.189C85.8352 198.47 84.7966 199.509 83.5154 199.509C82.2341 199.509 81.1955 198.47 81.1955 197.189C81.1955 195.908 82.2341 194.869 83.5154 194.869C84.7966 194.869 85.8352 195.908 85.8352 197.189Z" fill="#EDEDED"/>
<path d="M118.314 197.189C118.314 198.47 117.275 199.509 115.994 199.509C114.713 199.509 113.674 198.47 113.674 197.189C113.674 195.908 114.713 194.869 115.994 194.869C117.275 194.869 118.314 195.908 118.314 197.189Z" fill="#EDEDED"/>
<path d="M69.5956 229.668C69.5956 230.949 68.557 231.987 67.2757 231.987C65.9945 231.987 64.9559 230.949 64.9559 229.668C64.9559 228.386 65.9945 227.348 67.2757 227.348C68.557 227.348 69.5956 228.386 69.5956 229.668Z" fill="#EDEDED"/>
<path d="M102.074 229.668C102.074 230.949 101.036 231.988 99.7546 231.988C98.4734 231.988 97.4347 230.949 97.4347 229.668C97.4347 228.386 98.4734 227.348 99.7546 227.348C101.036 227.348 102.074 228.386 102.074 229.668Z" fill="#EDEDED"/>
<path d="M53.3568 229.668C53.3568 230.949 52.3182 231.987 51.0369 231.987C49.7557 231.987 48.7171 230.949 48.7171 229.668C48.7171 228.386 49.7557 227.348 51.0369 227.348C52.3182 227.348 53.3568 228.386 53.3568 229.668Z" fill="#EDEDED"/>
<path d="M85.8355 229.668C85.8355 230.949 84.7968 231.988 83.5156 231.988C82.2344 231.988 81.1957 230.949 81.1957 229.668C81.1957 228.386 82.2344 227.348 83.5156 227.348C84.7968 227.348 85.8355 228.386 85.8355 229.668Z" fill="#EDEDED"/>
<path d="M118.313 229.668C118.313 230.949 117.275 231.988 115.994 231.988C114.712 231.988 113.674 230.949 113.674 229.668C113.674 228.386 114.712 227.348 115.994 227.348C117.275 227.348 118.313 228.386 118.313 229.668Z" fill="#EDEDED"/>
<path d="M69.5956 213.428C69.5956 214.71 68.557 215.748 67.2757 215.748C65.9945 215.748 64.9559 214.71 64.9559 213.428C64.9559 212.147 65.9945 211.109 67.2757 211.109C68.557 211.109 69.5956 212.147 69.5956 213.428Z" fill="#EDEDED"/>
<path d="M102.074 213.428C102.074 214.71 101.036 215.748 99.7546 215.748C98.4734 215.748 97.4347 214.71 97.4347 213.428C97.4347 212.147 98.4734 211.109 99.7546 211.109C101.036 211.109 102.074 212.147 102.074 213.428Z" fill="#EDEDED"/>
<path d="M53.3568 213.429C53.3568 214.71 52.3182 215.749 51.0369 215.749C49.7557 215.749 48.7171 214.71 48.7171 213.429C48.7171 212.148 49.7557 211.109 51.0369 211.109C52.3182 211.109 53.3568 212.148 53.3568 213.429Z" fill="#EDEDED"/>
<path d="M85.8355 213.428C85.8355 214.71 84.7968 215.748 83.5156 215.748C82.2344 215.748 81.1957 214.71 81.1957 213.428C81.1957 212.147 82.2344 211.109 83.5156 211.109C84.7968 211.109 85.8355 212.147 85.8355 213.428Z" fill="#EDEDED"/>
<path d="M118.313 213.428C118.313 214.71 117.275 215.748 115.994 215.748C114.712 215.748 113.674 214.71 113.674 213.428C113.674 212.147 114.712 211.109 115.994 211.109C117.275 211.109 118.313 212.147 118.313 213.428Z" fill="#EDEDED"/>
<path d="M134.553 132.233C134.553 133.514 133.514 134.553 132.233 134.553C130.952 134.553 129.913 133.514 129.913 132.233C129.913 130.952 130.952 129.913 132.233 129.913C133.514 129.913 134.553 130.952 134.553 132.233Z" fill="#EDEDED"/>
<path d="M167.03 132.233C167.03 133.514 165.991 134.553 164.71 134.553C163.429 134.553 162.39 133.514 162.39 132.233C162.39 130.952 163.429 129.913 164.71 129.913C165.991 129.913 167.03 130.952 167.03 132.233Z" fill="#EDEDED"/>
<path d="M199.508 132.233C199.508 133.514 198.469 134.553 197.188 134.553C195.907 134.553 194.868 133.514 194.868 132.233C194.868 130.952 195.907 129.913 197.188 129.913C198.469 129.913 199.508 130.952 199.508 132.233Z" fill="#EDEDED"/>
<path d="M150.791 132.233C150.791 133.514 149.752 134.553 148.471 134.553C147.19 134.553 146.151 133.514 146.151 132.233C146.151 130.952 147.19 129.913 148.471 129.913C149.752 129.913 150.791 130.952 150.791 132.233Z" fill="#EDEDED"/>
<path d="M183.269 132.233C183.269 133.514 182.23 134.553 180.949 134.553C179.668 134.553 178.629 133.514 178.629 132.233C178.629 130.952 179.668 129.913 180.949 129.913C182.23 129.913 183.269 130.952 183.269 132.233Z" fill="#EDEDED"/>
<path d="M215.747 132.233C215.747 133.514 214.708 134.553 213.427 134.553C212.146 134.553 211.107 133.514 211.107 132.233C211.107 130.952 212.146 129.913 213.427 129.913C214.708 129.913 215.747 130.952 215.747 132.233Z" fill="#EDEDED"/>
<path d="M134.553 164.711C134.553 165.992 133.514 167.031 132.233 167.031C130.952 167.031 129.913 165.992 129.913 164.711C129.913 163.43 130.952 162.391 132.233 162.391C133.514 162.391 134.553 163.43 134.553 164.711Z" fill="#EDEDED"/>
<path d="M167.03 164.711C167.03 165.992 165.992 167.031 164.711 167.031C163.429 167.031 162.391 165.992 162.391 164.711C162.391 163.43 163.429 162.391 164.711 162.391C165.992 162.391 167.03 163.43 167.03 164.711Z" fill="#EDEDED"/>
<path d="M199.508 164.711C199.508 165.992 198.47 167.031 197.189 167.031C195.907 167.031 194.869 165.992 194.869 164.711C194.869 163.43 195.907 162.391 197.189 162.391C198.47 162.391 199.508 163.43 199.508 164.711Z" fill="#EDEDED"/>
<path d="M150.791 164.711C150.791 165.992 149.753 167.031 148.472 167.031C147.19 167.031 146.152 165.992 146.152 164.711C146.152 163.43 147.19 162.391 148.472 162.391C149.753 162.391 150.791 163.43 150.791 164.711Z" fill="#EDEDED"/>
<path d="M183.27 164.711C183.27 165.992 182.231 167.031 180.95 167.031C179.669 167.031 178.63 165.992 178.63 164.711C178.63 163.43 179.669 162.391 180.95 162.391C182.231 162.391 183.27 163.43 183.27 164.711Z" fill="#EDEDED"/>
<path d="M215.747 164.711C215.747 165.992 214.709 167.031 213.428 167.031C212.146 167.031 211.108 165.992 211.108 164.711C211.108 163.43 212.146 162.391 213.428 162.391C214.709 162.391 215.747 163.43 215.747 164.711Z" fill="#EDEDED"/>
<path d="M134.553 148.473C134.553 149.754 133.514 150.792 132.233 150.792C130.952 150.792 129.913 149.754 129.913 148.473C129.913 147.191 130.952 146.153 132.233 146.153C133.514 146.153 134.553 147.191 134.553 148.473Z" fill="#EDEDED"/>
<path d="M167.03 148.472C167.03 149.753 165.992 150.792 164.711 150.792C163.429 150.792 162.391 149.753 162.391 148.472C162.391 147.191 163.429 146.152 164.711 146.152C165.992 146.152 167.03 147.191 167.03 148.472Z" fill="#EDEDED"/>
<path d="M199.508 148.472C199.508 149.753 198.47 150.792 197.189 150.792C195.907 150.792 194.869 149.753 194.869 148.472C194.869 147.191 195.907 146.152 197.189 146.152C198.47 146.152 199.508 147.191 199.508 148.472Z" fill="#EDEDED"/>
<path d="M150.791 148.472C150.791 149.753 149.753 150.792 148.472 150.792C147.19 150.792 146.152 149.753 146.152 148.472C146.152 147.191 147.19 146.152 148.472 146.152C149.753 146.152 150.791 147.191 150.791 148.472Z" fill="#EDEDED"/>
<path d="M183.27 148.472C183.27 149.753 182.231 150.792 180.95 150.792C179.669 150.792 178.63 149.753 178.63 148.472C178.63 147.191 179.669 146.152 180.95 146.152C182.231 146.152 183.27 147.191 183.27 148.472Z" fill="#EDEDED"/>
<path d="M215.747 148.472C215.747 149.753 214.709 150.792 213.428 150.792C212.146 150.792 211.108 149.753 211.108 148.472C211.108 147.191 212.146 146.152 213.428 146.152C214.709 146.152 215.747 147.191 215.747 148.472Z" fill="#EDEDED"/>
<path d="M134.553 180.95C134.553 182.231 133.514 183.27 132.233 183.27C130.952 183.27 129.913 182.231 129.913 180.95C129.913 179.669 130.952 178.63 132.233 178.63C133.514 178.63 134.553 179.669 134.553 180.95Z" fill="#EDEDED"/>
<path d="M167.03 180.95C167.03 182.231 165.992 183.27 164.711 183.27C163.429 183.27 162.391 182.231 162.391 180.95C162.391 179.669 163.429 178.63 164.711 178.63C165.992 178.63 167.03 179.669 167.03 180.95Z" fill="#EDEDED"/>
<path d="M199.508 180.95C199.508 182.231 198.47 183.27 197.189 183.27C195.907 183.27 194.869 182.231 194.869 180.95C194.869 179.669 195.907 178.63 197.189 178.63C198.47 178.63 199.508 179.669 199.508 180.95Z" fill="#EDEDED"/>
<path d="M150.791 180.95C150.791 182.231 149.753 183.27 148.472 183.27C147.19 183.27 146.152 182.231 146.152 180.95C146.152 179.669 147.19 178.63 148.472 178.63C149.753 178.63 150.791 179.669 150.791 180.95Z" fill="#EDEDED"/>
<path d="M183.27 180.95C183.27 182.231 182.231 183.27 180.95 183.27C179.669 183.27 178.63 182.231 178.63 180.95C178.63 179.669 179.669 178.63 180.95 178.63C182.231 178.63 183.27 179.669 183.27 180.95Z" fill="#EDEDED"/>
<path d="M215.747 180.95C215.747 182.231 214.709 183.27 213.428 183.27C212.146 183.27 211.108 182.231 211.108 180.95C211.108 179.669 212.146 178.63 213.428 178.63C214.709 178.63 215.747 179.669 215.747 180.95Z" fill="#EDEDED"/>
<path d="M134.553 197.189C134.553 198.47 133.514 199.509 132.233 199.509C130.952 199.509 129.913 198.47 129.913 197.189C129.913 195.908 130.952 194.869 132.233 194.869C133.514 194.869 134.553 195.908 134.553 197.189Z" fill="#EDEDED"/>
<path d="M167.031 197.189C167.031 198.47 165.992 199.509 164.711 199.509C163.43 199.509 162.391 198.47 162.391 197.189C162.391 195.908 163.43 194.869 164.711 194.869C165.992 194.869 167.031 195.908 167.031 197.189Z" fill="#EDEDED"/>
<path d="M199.508 197.189C199.508 198.47 198.47 199.509 197.189 199.509C195.907 199.509 194.869 198.47 194.869 197.189C194.869 195.908 195.907 194.869 197.189 194.869C198.47 194.869 199.508 195.908 199.508 197.189Z" fill="#EDEDED"/>
<path d="M150.792 197.189C150.792 198.47 149.753 199.509 148.472 199.509C147.191 199.509 146.152 198.47 146.152 197.189C146.152 195.908 147.191 194.869 148.472 194.869C149.753 194.869 150.792 195.908 150.792 197.189Z" fill="#EDEDED"/>
<path d="M183.27 197.189C183.27 198.47 182.231 199.509 180.95 199.509C179.669 199.509 178.63 198.47 178.63 197.189C178.63 195.908 179.669 194.869 180.95 194.869C182.231 194.869 183.27 195.908 183.27 197.189Z" fill="#EDEDED"/>
<path d="M215.747 197.189C215.747 198.47 214.709 199.509 213.428 199.509C212.146 199.509 211.108 198.47 211.108 197.189C211.108 195.908 212.146 194.869 213.428 194.869C214.709 194.869 215.747 195.908 215.747 197.189Z" fill="#EDEDED"/>
<path d="M134.552 229.668C134.552 230.949 133.514 231.987 132.232 231.987C130.951 231.987 129.913 230.949 129.913 229.668C129.913 228.386 130.951 227.348 132.232 227.348C133.514 227.348 134.552 228.386 134.552 229.668Z" fill="#EDEDED"/>
<path d="M167.03 229.668C167.03 230.949 165.992 231.987 164.71 231.987C163.429 231.987 162.39 230.949 162.39 229.668C162.39 228.386 163.429 227.348 164.71 227.348C165.992 227.348 167.03 228.386 167.03 229.668Z" fill="#EDEDED"/>
<path d="M199.508 229.668C199.508 230.949 198.47 231.987 197.188 231.987C195.907 231.987 194.868 230.949 194.868 229.668C194.868 228.386 195.907 227.348 197.188 227.348C198.47 227.348 199.508 228.386 199.508 229.668Z" fill="#EDEDED"/>
<path d="M150.791 229.668C150.791 230.949 149.752 231.987 148.471 231.987C147.19 231.987 146.151 230.949 146.151 229.668C146.151 228.386 147.19 227.348 148.471 227.348C149.752 227.348 150.791 228.386 150.791 229.668Z" fill="#EDEDED"/>
<path d="M183.27 229.668C183.27 230.949 182.231 231.987 180.95 231.987C179.668 231.987 178.63 230.949 178.63 229.668C178.63 228.386 179.668 227.348 180.95 227.348C182.231 227.348 183.27 228.386 183.27 229.668Z" fill="#EDEDED"/>
<path d="M215.747 229.668C215.747 230.949 214.709 231.987 213.427 231.987C212.146 231.987 211.107 230.949 211.107 229.668C211.107 228.386 212.146 227.348 213.427 227.348C214.709 227.348 215.747 228.386 215.747 229.668Z" fill="#EDEDED"/>
<path d="M134.552 213.429C134.552 214.71 133.514 215.749 132.232 215.749C130.951 215.749 129.913 214.71 129.913 213.429C129.913 212.148 130.951 211.109 132.232 211.109C133.514 211.109 134.552 212.148 134.552 213.429Z" fill="#EDEDED"/>
<path d="M167.03 213.428C167.03 214.71 165.992 215.748 164.71 215.748C163.429 215.748 162.39 214.71 162.39 213.428C162.39 212.147 163.429 211.109 164.71 211.109C165.992 211.109 167.03 212.147 167.03 213.428Z" fill="#EDEDED"/>
<path d="M199.508 213.428C199.508 214.71 198.47 215.748 197.188 215.748C195.907 215.748 194.868 214.71 194.868 213.428C194.868 212.147 195.907 211.109 197.188 211.109C198.47 211.109 199.508 212.147 199.508 213.428Z" fill="#EDEDED"/>
<path d="M150.791 213.428C150.791 214.71 149.752 215.748 148.471 215.748C147.19 215.748 146.151 214.71 146.151 213.428C146.151 212.147 147.19 211.109 148.471 211.109C149.752 211.109 150.791 212.147 150.791 213.428Z" fill="#EDEDED"/>
<path d="M183.27 213.428C183.27 214.71 182.231 215.748 180.95 215.748C179.668 215.748 178.63 214.71 178.63 213.428C178.63 212.147 179.668 211.109 180.95 211.109C182.231 211.109 183.27 212.147 183.27 213.428Z" fill="#EDEDED"/>
<path d="M215.747 213.428C215.747 214.71 214.709 215.748 213.427 215.748C212.146 215.748 211.107 214.71 211.107 213.428C211.107 212.147 212.146 211.109 213.427 211.109C214.709 211.109 215.747 212.147 215.747 213.428Z" fill="#EDEDED"/>
<path d="M69.596 2.31987C69.596 3.6011 68.5574 4.63975 67.2761 4.63975C65.9949 4.63975 64.9563 3.6011 64.9563 2.31987C64.9563 1.03864 65.9949 0 67.2761 0C68.5574 0 69.596 1.03864 69.596 2.31987Z" fill="#EDEDED"/>
<path d="M102.075 2.31987C102.075 3.6011 101.036 4.63975 99.755 4.63975C98.4738 4.63975 97.4351 3.6011 97.4351 2.31987C97.4351 1.03864 98.4738 0 99.755 0C101.036 0 102.075 1.03864 102.075 2.31987Z" fill="#EDEDED"/>
<path d="M53.3572 2.31987C53.3572 3.6011 52.3186 4.63975 51.0373 4.63975C49.7561 4.63975 48.7174 3.6011 48.7174 2.31987C48.7174 1.03864 49.7561 0 51.0373 0C52.3186 0 53.3572 1.03864 53.3572 2.31987Z" fill="#EDEDED"/>
<path d="M85.8354 2.31987C85.8354 3.6011 84.7968 4.63975 83.5156 4.63975C82.2343 4.63975 81.1957 3.6011 81.1957 2.31987C81.1957 1.03864 82.2343 0 83.5156 0C84.7968 0 85.8354 1.03864 85.8354 2.31987Z" fill="#EDEDED"/>
<path d="M118.314 2.31987C118.314 3.6011 117.275 4.63975 115.994 4.63975C114.713 4.63975 113.674 3.6011 113.674 2.31987C113.674 1.03864 114.713 0 115.994 0C117.275 0 118.314 1.03864 118.314 2.31987Z" fill="#EDEDED"/>
<path d="M69.5958 34.7983C69.5958 36.0795 68.5572 37.1182 67.2759 37.1182C65.9947 37.1182 64.9561 36.0795 64.9561 34.7983C64.9561 33.5171 65.9947 32.4784 67.2759 32.4784C68.5572 32.4784 69.5958 33.5171 69.5958 34.7983Z" fill="#EDEDED"/>
<path d="M102.075 34.7983C102.075 36.0795 101.036 37.1182 99.7548 37.1182C98.4736 37.1182 97.4349 36.0795 97.4349 34.7983C97.4349 33.5171 98.4736 32.4784 99.7548 32.4784C101.036 32.4784 102.075 33.5171 102.075 34.7983Z" fill="#EDEDED"/>
<path d="M53.357 34.7982C53.357 36.0794 52.3184 37.1181 51.0371 37.1181C49.7559 37.1181 48.7173 36.0794 48.7173 34.7982C48.7173 33.517 49.7559 32.4783 51.0371 32.4783C52.3184 32.4783 53.357 33.517 53.357 34.7982Z" fill="#EDEDED"/>
<path d="M85.8352 34.7983C85.8352 36.0795 84.7966 37.1182 83.5154 37.1182C82.2341 37.1182 81.1955 36.0795 81.1955 34.7983C81.1955 33.5171 82.2341 32.4784 83.5154 32.4784C84.7966 32.4784 85.8352 33.5171 85.8352 34.7983Z" fill="#EDEDED"/>
<path d="M118.314 34.7983C118.314 36.0795 117.275 37.1182 115.994 37.1182C114.713 37.1182 113.674 36.0795 113.674 34.7983C113.674 33.5171 114.713 32.4784 115.994 32.4784C117.275 32.4784 118.314 33.5171 118.314 34.7983Z" fill="#EDEDED"/>
<path d="M69.5958 18.5589C69.5958 19.8401 68.5572 20.8788 67.2759 20.8788C65.9947 20.8788 64.9561 19.8401 64.9561 18.5589C64.9561 17.2777 65.9947 16.239 67.2759 16.239C68.5572 16.239 69.5958 17.2777 69.5958 18.5589Z" fill="#EDEDED"/>
<path d="M102.075 18.5589C102.075 19.8401 101.036 20.8788 99.7548 20.8788C98.4736 20.8788 97.4349 19.8401 97.4349 18.5589C97.4349 17.2777 98.4736 16.239 99.7548 16.239C101.036 16.239 102.075 17.2777 102.075 18.5589Z" fill="#EDEDED"/>
<path d="M53.357 18.5589C53.357 19.8401 52.3184 20.8788 51.0371 20.8788C49.7559 20.8788 48.7173 19.8401 48.7173 18.5589C48.7173 17.2777 49.7559 16.239 51.0371 16.239C52.3184 16.239 53.357 17.2777 53.357 18.5589Z" fill="#EDEDED"/>
<path d="M85.8352 18.5589C85.8352 19.8401 84.7966 20.8788 83.5154 20.8788C82.2341 20.8788 81.1955 19.8401 81.1955 18.5589C81.1955 17.2777 82.2341 16.239 83.5154 16.239C84.7966 16.239 85.8352 17.2777 85.8352 18.5589Z" fill="#EDEDED"/>
<path d="M118.314 18.5589C118.314 19.8401 117.275 20.8788 115.994 20.8788C114.713 20.8788 113.674 19.8401 113.674 18.5589C113.674 17.2777 114.713 16.239 115.994 16.239C117.275 16.239 118.314 17.2777 118.314 18.5589Z" fill="#EDEDED"/>
<path d="M69.5958 51.037C69.5958 52.3183 68.5572 53.3569 67.2759 53.3569C65.9947 53.3569 64.9561 52.3183 64.9561 51.037C64.9561 49.7558 65.9947 48.7172 67.2759 48.7172C68.5572 48.7172 69.5958 49.7558 69.5958 51.037Z" fill="#EDEDED"/>
<path d="M102.075 51.037C102.075 52.3183 101.036 53.3569 99.7548 53.3569C98.4736 53.3569 97.4349 52.3183 97.4349 51.037C97.4349 49.7558 98.4736 48.7172 99.7548 48.7172C101.036 48.7172 102.075 49.7558 102.075 51.037Z" fill="#EDEDED"/>
<path d="M53.357 51.037C53.357 52.3183 52.3184 53.3569 51.0371 53.3569C49.7559 53.3569 48.7173 52.3183 48.7173 51.037C48.7173 49.7558 49.7559 48.7172 51.0371 48.7172C52.3184 48.7172 53.357 49.7558 53.357 51.037Z" fill="#EDEDED"/>
<path d="M85.8352 51.037C85.8352 52.3183 84.7966 53.3569 83.5154 53.3569C82.2341 53.3569 81.1955 52.3183 81.1955 51.037C81.1955 49.7558 82.2341 48.7172 83.5154 48.7172C84.7966 48.7172 85.8352 49.7558 85.8352 51.037Z" fill="#EDEDED"/>
<path d="M118.314 51.037C118.314 52.3183 117.275 53.3569 115.994 53.3569C114.713 53.3569 113.674 52.3183 113.674 51.037C113.674 49.7558 114.713 48.7172 115.994 48.7172C117.275 48.7172 118.314 49.7558 118.314 51.037Z" fill="#EDEDED"/>
<path d="M69.596 67.2763C69.596 68.5575 68.5574 69.5961 67.2761 69.5961C65.9949 69.5961 64.9563 68.5575 64.9563 67.2763C64.9563 65.995 65.9949 64.9564 67.2761 64.9564C68.5574 64.9564 69.596 65.995 69.596 67.2763Z" fill="#EDEDED"/>
<path d="M102.075 67.2763C102.075 68.5575 101.036 69.5961 99.755 69.5961C98.4738 69.5961 97.4351 68.5575 97.4351 67.2763C97.4351 65.995 98.4738 64.9564 99.755 64.9564C101.036 64.9564 102.075 65.995 102.075 67.2763Z" fill="#EDEDED"/>
<path d="M53.3572 67.2763C53.3572 68.5575 52.3186 69.5961 51.0373 69.5961C49.7561 69.5961 48.7174 68.5575 48.7174 67.2763C48.7174 65.995 49.7561 64.9564 51.0373 64.9564C52.3186 64.9564 53.3572 65.995 53.3572 67.2763Z" fill="#EDEDED"/>
<path d="M85.8354 67.2763C85.8354 68.5575 84.7968 69.5961 83.5156 69.5961C82.2343 69.5961 81.1957 68.5575 81.1957 67.2763C81.1957 65.995 82.2343 64.9564 83.5156 64.9564C84.7968 64.9564 85.8354 65.995 85.8354 67.2763Z" fill="#EDEDED"/>
<path d="M118.314 67.2763C118.314 68.5575 117.275 69.5961 115.994 69.5961C114.713 69.5961 113.674 68.5575 113.674 67.2763C113.674 65.995 114.713 64.9564 115.994 64.9564C117.275 64.9564 118.314 65.995 118.314 67.2763Z" fill="#EDEDED"/>
<path d="M69.596 99.7547C69.596 101.036 68.5574 102.075 67.2761 102.075C65.9949 102.075 64.9563 101.036 64.9563 99.7547C64.9563 98.4735 65.9949 97.4348 67.2761 97.4348C68.5574 97.4348 69.596 98.4735 69.596 99.7547Z" fill="#EDEDED"/>
<path d="M102.075 99.7547C102.075 101.036 101.036 102.075 99.755 102.075C98.4738 102.075 97.4351 101.036 97.4351 99.7547C97.4351 98.4735 98.4738 97.4348 99.755 97.4348C101.036 97.4348 102.075 98.4735 102.075 99.7547Z" fill="#EDEDED"/>
<path d="M53.3572 99.7546C53.3572 101.036 52.3186 102.074 51.0373 102.074C49.7561 102.074 48.7174 101.036 48.7174 99.7546C48.7174 98.4734 49.7561 97.4347 51.0373 97.4347C52.3186 97.4347 53.3572 98.4734 53.3572 99.7546Z" fill="#EDEDED"/>
<path d="M85.8354 99.7547C85.8354 101.036 84.7968 102.075 83.5156 102.075C82.2343 102.075 81.1957 101.036 81.1957 99.7547C81.1957 98.4735 82.2343 97.4348 83.5156 97.4348C84.7968 97.4348 85.8354 98.4735 85.8354 99.7547Z" fill="#EDEDED"/>
<path d="M118.314 99.7547C118.314 101.036 117.275 102.075 115.994 102.075C114.713 102.075 113.674 101.036 113.674 99.7547C113.674 98.4735 114.713 97.4348 115.994 97.4348C117.275 97.4348 118.314 98.4735 118.314 99.7547Z" fill="#EDEDED"/>
<path d="M69.596 83.5153C69.596 84.7965 68.5574 85.8351 67.2761 85.8351C65.9949 85.8351 64.9563 84.7965 64.9563 83.5153C64.9563 82.234 65.9949 81.1954 67.2761 81.1954C68.5574 81.1954 69.596 82.234 69.596 83.5153Z" fill="#EDEDED"/>
<path d="M102.075 83.5153C102.075 84.7965 101.036 85.8352 99.755 85.8352C98.4738 85.8352 97.4351 84.7965 97.4351 83.5153C97.4351 82.2341 98.4738 81.1954 99.755 81.1954C101.036 81.1954 102.075 82.2341 102.075 83.5153Z" fill="#EDEDED"/>
<path d="M53.3572 83.5158C53.3572 84.797 52.3186 85.8356 51.0373 85.8356C49.7561 85.8356 48.7174 84.797 48.7174 83.5158C48.7174 82.2345 49.7561 81.1959 51.0373 81.1959C52.3186 81.1959 53.3572 82.2345 53.3572 83.5158Z" fill="#EDEDED"/>
<path d="M85.8354 83.5153C85.8354 84.7965 84.7968 85.8352 83.5156 85.8352C82.2343 85.8352 81.1957 84.7965 81.1957 83.5153C81.1957 82.2341 82.2343 81.1954 83.5156 81.1954C84.7968 81.1954 85.8354 82.2341 85.8354 83.5153Z" fill="#EDEDED"/>
<path d="M118.314 83.5153C118.314 84.7965 117.275 85.8352 115.994 85.8352C114.713 85.8352 113.674 84.7965 113.674 83.5153C113.674 82.2341 114.713 81.1954 115.994 81.1954C117.275 81.1954 118.314 82.2341 118.314 83.5153Z" fill="#EDEDED"/>
<path d="M37.1183 132.233C37.1183 133.514 36.0797 134.553 34.7985 134.553C33.5172 134.553 32.4786 133.514 32.4786 132.233C32.4786 130.952 33.5172 129.913 34.7985 129.913C36.0797 129.913 37.1183 130.952 37.1183 132.233Z" fill="#EDEDED"/>
<path d="M37.1183 164.711C37.1183 165.992 36.0797 167.031 34.7985 167.031C33.5172 167.031 32.4786 165.992 32.4786 164.711C32.4786 163.43 33.5172 162.391 34.7985 162.391C36.0797 162.391 37.1183 163.43 37.1183 164.711Z" fill="#EDEDED"/>
<path d="M37.1183 148.472C37.1183 149.753 36.0797 150.792 34.7985 150.792C33.5172 150.792 32.4786 149.753 32.4786 148.472C32.4786 147.191 33.5172 146.152 34.7985 146.152C36.0797 146.152 37.1183 147.191 37.1183 148.472Z" fill="#EDEDED"/>
<path d="M37.1183 180.95C37.1183 182.231 36.0797 183.27 34.7985 183.27C33.5172 183.27 32.4786 182.231 32.4786 180.95C32.4786 179.669 33.5172 178.63 34.7985 178.63C36.0797 178.63 37.1183 179.669 37.1183 180.95Z" fill="#EDEDED"/>
<path d="M37.1183 197.189C37.1183 198.47 36.0797 199.509 34.7985 199.509C33.5172 199.509 32.4786 198.47 32.4786 197.189C32.4786 195.908 33.5172 194.869 34.7985 194.869C36.0797 194.869 37.1183 195.908 37.1183 197.189Z" fill="#EDEDED"/>
<path d="M37.1183 229.667C37.1183 230.949 36.0797 231.987 34.7985 231.987C33.5172 231.987 32.4786 230.949 32.4786 229.667C32.4786 228.386 33.5172 227.348 34.7985 227.348C36.0797 227.348 37.1183 228.386 37.1183 229.667Z" fill="#EDEDED"/>
<path d="M37.1183 213.428C37.1183 214.71 36.0797 215.748 34.7985 215.748C33.5172 215.748 32.4786 214.71 32.4786 213.428C32.4786 212.147 33.5172 211.109 34.7985 211.109C36.0797 211.109 37.1183 212.147 37.1183 213.428Z" fill="#EDEDED"/>
<path d="M37.1179 2.31987C37.1179 3.6011 36.0792 4.63975 34.798 4.63975C33.5167 4.63975 32.4781 3.6011 32.4781 2.31987C32.4781 1.03864 33.5167 0 34.798 0C36.0792 0 37.1179 1.03864 37.1179 2.31987Z" fill="#EDEDED"/>
<path d="M37.1183 34.7982C37.1183 36.0794 36.0797 37.1181 34.7985 37.1181C33.5172 37.1181 32.4786 36.0794 32.4786 34.7982C32.4786 33.517 33.5172 32.4783 34.7985 32.4783C36.0797 32.4783 37.1183 33.517 37.1183 34.7982Z" fill="#EDEDED"/>
<path d="M37.1183 18.5589C37.1183 19.8401 36.0797 20.8788 34.7985 20.8788C33.5172 20.8788 32.4786 19.8401 32.4786 18.5589C32.4786 17.2777 33.5172 16.239 34.7985 16.239C36.0797 16.239 37.1183 17.2777 37.1183 18.5589Z" fill="#EDEDED"/>
<path d="M37.1183 51.037C37.1183 52.3183 36.0797 53.3569 34.7985 53.3569C33.5172 53.3569 32.4786 52.3183 32.4786 51.037C32.4786 49.7558 33.5172 48.7172 34.7985 48.7172C36.0797 48.7172 37.1183 49.7558 37.1183 51.037Z" fill="#EDEDED"/>
<path d="M37.1183 67.2763C37.1183 68.5575 36.0797 69.5961 34.7985 69.5961C33.5172 69.5961 32.4786 68.5575 32.4786 67.2763C32.4786 65.995 33.5172 64.9564 34.7985 64.9564C36.0797 64.9564 37.1183 65.995 37.1183 67.2763Z" fill="#EDEDED"/>
<path d="M37.1183 99.7546C37.1183 101.036 36.0797 102.074 34.7985 102.074C33.5172 102.074 32.4786 101.036 32.4786 99.7546C32.4786 98.4734 33.5172 97.4347 34.7985 97.4347C36.0797 97.4347 37.1183 98.4734 37.1183 99.7546Z" fill="#EDEDED"/>
<path d="M37.1183 83.5154C37.1183 84.7966 36.0797 85.8353 34.7985 85.8353C33.5172 85.8353 32.4786 84.7966 32.4786 83.5154C32.4786 82.2342 33.5172 81.1955 34.7985 81.1955C36.0797 81.1955 37.1183 82.2342 37.1183 83.5154Z" fill="#EDEDED"/>
<path d="M37.1183 115.994C37.1183 117.275 36.0797 118.313 34.7985 118.313C33.5172 118.313 32.4786 117.275 32.4786 115.994C32.4786 114.712 33.5172 113.674 34.7985 113.674C36.0797 113.674 37.1183 114.712 37.1183 115.994Z" fill="#EDEDED"/>
<path d="M20.8784 132.233C20.8784 133.514 19.8398 134.553 18.5585 134.553C17.2773 134.553 16.2387 133.514 16.2387 132.233C16.2387 130.952 17.2773 129.913 18.5585 129.913C19.8398 129.913 20.8784 130.952 20.8784 132.233Z" fill="#EDEDED"/>
<path d="M20.8784 164.711C20.8784 165.992 19.8398 167.031 18.5585 167.031C17.2773 167.031 16.2387 165.992 16.2387 164.711C16.2387 163.43 17.2773 162.391 18.5585 162.391C19.8398 162.391 20.8784 163.43 20.8784 164.711Z" fill="#EDEDED"/>
<path d="M20.8784 148.472C20.8784 149.753 19.8398 150.792 18.5585 150.792C17.2773 150.792 16.2387 149.753 16.2387 148.472C16.2387 147.191 17.2773 146.152 18.5585 146.152C19.8398 146.152 20.8784 147.191 20.8784 148.472Z" fill="#EDEDED"/>
<path d="M20.8784 180.95C20.8784 182.231 19.8398 183.27 18.5585 183.27C17.2773 183.27 16.2387 182.231 16.2387 180.95C16.2387 179.669 17.2773 178.63 18.5585 178.63C19.8398 178.63 20.8784 179.669 20.8784 180.95Z" fill="#EDEDED"/>
<path d="M20.8784 197.189C20.8784 198.47 19.8398 199.509 18.5585 199.509C17.2773 199.509 16.2387 198.47 16.2387 197.189C16.2387 195.908 17.2773 194.869 18.5585 194.869C19.8398 194.869 20.8784 195.908 20.8784 197.189Z" fill="#EDEDED"/>
<path d="M20.8784 229.667C20.8784 230.949 19.8398 231.987 18.5585 231.987C17.2773 231.987 16.2387 230.949 16.2387 229.667C16.2387 228.386 17.2773 227.348 18.5585 227.348C19.8398 227.348 20.8784 228.386 20.8784 229.667Z" fill="#EDEDED"/>
<path d="M20.8784 213.428C20.8784 214.71 19.8398 215.748 18.5585 215.748C17.2773 215.748 16.2387 214.71 16.2387 213.428C16.2387 212.147 17.2773 211.109 18.5585 211.109C19.8398 211.109 20.8784 212.147 20.8784 213.428Z" fill="#EDEDED"/>
<path d="M20.8785 2.31987C20.8785 3.6011 19.8399 4.63975 18.5586 4.63975C17.2774 4.63975 16.2388 3.6011 16.2388 2.31987C16.2388 1.03864 17.2774 0 18.5586 0C19.8399 0 20.8785 1.03864 20.8785 2.31987Z" fill="#EDEDED"/>
<path d="M20.8784 34.7982C20.8784 36.0794 19.8398 37.1181 18.5585 37.1181C17.2773 37.1181 16.2387 36.0794 16.2387 34.7982C16.2387 33.517 17.2773 32.4783 18.5585 32.4783C19.8398 32.4783 20.8784 33.517 20.8784 34.7982Z" fill="#EDEDED"/>
<path d="M20.8784 18.5589C20.8784 19.8401 19.8398 20.8788 18.5585 20.8788C17.2773 20.8788 16.2387 19.8401 16.2387 18.5589C16.2387 17.2777 17.2773 16.239 18.5585 16.239C19.8398 16.239 20.8784 17.2777 20.8784 18.5589Z" fill="#EDEDED"/>
<path d="M20.8784 51.037C20.8784 52.3183 19.8398 53.3569 18.5585 53.3569C17.2773 53.3569 16.2387 52.3183 16.2387 51.037C16.2387 49.7558 17.2773 48.7172 18.5585 48.7172C19.8398 48.7172 20.8784 49.7558 20.8784 51.037Z" fill="#EDEDED"/>
<path d="M20.8784 67.2763C20.8784 68.5575 19.8398 69.5961 18.5585 69.5961C17.2773 69.5961 16.2387 68.5575 16.2387 67.2763C16.2387 65.995 17.2773 64.9564 18.5585 64.9564C19.8398 64.9564 20.8784 65.995 20.8784 67.2763Z" fill="#EDEDED"/>
<path d="M20.8784 99.7546C20.8784 101.036 19.8398 102.074 18.5585 102.074C17.2773 102.074 16.2387 101.036 16.2387 99.7546C16.2387 98.4734 17.2773 97.4347 18.5585 97.4347C19.8398 97.4347 20.8784 98.4734 20.8784 99.7546Z" fill="#EDEDED"/>
<path d="M20.8784 83.5154C20.8784 84.7966 19.8398 85.8353 18.5585 85.8353C17.2773 85.8353 16.2387 84.7966 16.2387 83.5154C16.2387 82.2342 17.2773 81.1955 18.5585 81.1955C19.8398 81.1955 20.8784 82.2342 20.8784 83.5154Z" fill="#EDEDED"/>
<path d="M20.8784 115.994C20.8784 117.275 19.8398 118.313 18.5585 118.313C17.2773 118.313 16.2387 117.275 16.2387 115.994C16.2387 114.712 17.2773 113.674 18.5585 113.674C19.8398 113.674 20.8784 114.712 20.8784 115.994Z" fill="#EDEDED"/>
<path d="M4.63975 132.233C4.63975 133.514 3.6011 134.553 2.31987 134.553C1.03864 134.553 0 133.514 0 132.233C0 130.952 1.03864 129.913 2.31987 129.913C3.6011 129.913 4.63975 130.952 4.63975 132.233Z" fill="#EDEDED"/>
<path d="M4.63975 164.711C4.63975 165.992 3.6011 167.031 2.31987 167.031C1.03864 167.031 0 165.992 0 164.711C0 163.43 1.03864 162.391 2.31987 162.391C3.6011 162.391 4.63975 163.43 4.63975 164.711Z" fill="#EDEDED"/>
<path d="M4.63975 148.472C4.63975 149.753 3.6011 150.792 2.31987 150.792C1.03864 150.792 0 149.753 0 148.472C0 147.191 1.03864 146.152 2.31987 146.152C3.6011 146.152 4.63975 147.191 4.63975 148.472Z" fill="#EDEDED"/>
<path d="M4.63975 180.95C4.63975 182.231 3.6011 183.27 2.31987 183.27C1.03864 183.27 0 182.231 0 180.95C0 179.669 1.03864 178.63 2.31987 178.63C3.6011 178.63 4.63975 179.669 4.63975 180.95Z" fill="#EDEDED"/>
<path d="M4.63975 197.189C4.63975 198.47 3.6011 199.509 2.31987 199.509C1.03864 199.509 0 198.47 0 197.189C0 195.908 1.03864 194.869 2.31987 194.869C3.6011 194.869 4.63975 195.908 4.63975 197.189Z" fill="#EDEDED"/>
<path d="M4.63975 229.667C4.63975 230.949 3.6011 231.987 2.31987 231.987C1.03864 231.987 0 230.949 0 229.667C0 228.386 1.03864 227.348 2.31987 227.348C3.6011 227.348 4.63975 228.386 4.63975 229.667Z" fill="#EDEDED"/>
<path d="M4.63975 213.428C4.63975 214.71 3.6011 215.748 2.31987 215.748C1.03864 215.748 0 214.71 0 213.428C0 212.147 1.03864 211.109 2.31987 211.109C3.6011 211.109 4.63975 212.147 4.63975 213.428Z" fill="#EDEDED"/>
<path d="M69.5958 245.906C69.5958 247.188 68.5572 248.226 67.2759 248.226C65.9947 248.226 64.956 247.188 64.956 245.906C64.956 244.625 65.9947 243.587 67.2759 243.587C68.5572 243.587 69.5958 244.625 69.5958 245.906Z" fill="#EDEDED"/>
<path d="M102.075 245.906C102.075 247.188 101.036 248.226 99.7548 248.226C98.4735 248.226 97.4349 247.188 97.4349 245.906C97.4349 244.625 98.4735 243.587 99.7548 243.587C101.036 243.587 102.075 244.625 102.075 245.906Z" fill="#EDEDED"/>
<path d="M53.3572 245.906C53.3572 247.188 52.3186 248.226 51.0373 248.226C49.7561 248.226 48.7174 247.188 48.7174 245.906C48.7174 244.625 49.7561 243.587 51.0373 243.587C52.3186 243.587 53.3572 244.625 53.3572 245.906Z" fill="#EDEDED"/>
<path d="M85.8356 245.906C85.8356 247.188 84.797 248.226 83.5158 248.226C82.2345 248.226 81.1959 247.188 81.1959 245.906C81.1959 244.625 82.2345 243.587 83.5158 243.587C84.797 243.587 85.8356 244.625 85.8356 245.906Z" fill="#EDEDED"/>
<path d="M118.314 245.906C118.314 247.188 117.275 248.226 115.994 248.226C114.713 248.226 113.674 247.188 113.674 245.906C113.674 244.625 114.713 243.587 115.994 243.587C117.275 243.587 118.314 244.625 118.314 245.906Z" fill="#EDEDED"/>
<path d="M134.553 245.906C134.553 247.188 133.514 248.226 132.233 248.226C130.952 248.226 129.913 247.188 129.913 245.906C129.913 244.625 130.952 243.587 132.233 243.587C133.514 243.587 134.553 244.625 134.553 245.906Z" fill="#EDEDED"/>
<path d="M167.031 245.906C167.031 247.188 165.992 248.226 164.711 248.226C163.43 248.226 162.391 247.188 162.391 245.906C162.391 244.625 163.43 243.587 164.711 243.587C165.992 243.587 167.031 244.625 167.031 245.906Z" fill="#EDEDED"/>
<path d="M199.509 245.906C199.509 247.188 198.47 248.226 197.189 248.226C195.908 248.226 194.869 247.188 194.869 245.906C194.869 244.625 195.908 243.587 197.189 243.587C198.47 243.587 199.509 244.625 199.509 245.906Z" fill="#EDEDED"/>
<path d="M150.792 245.906C150.792 247.188 149.753 248.226 148.472 248.226C147.191 248.226 146.152 247.188 146.152 245.906C146.152 244.625 147.191 243.587 148.472 243.587C149.753 243.587 150.792 244.625 150.792 245.906Z" fill="#EDEDED"/>
<path d="M183.27 245.906C183.27 247.188 182.231 248.226 180.95 248.226C179.669 248.226 178.63 247.188 178.63 245.906C178.63 244.625 179.669 243.587 180.95 243.587C182.231 243.587 183.27 244.625 183.27 245.906Z" fill="#EDEDED"/>
<path d="M215.747 245.906C215.747 247.188 214.709 248.226 213.427 248.226C212.146 248.226 211.108 247.188 211.108 245.906C211.108 244.625 212.146 243.587 213.427 243.587C214.709 243.587 215.747 244.625 215.747 245.906Z" fill="#EDEDED"/>
<path d="M37.1178 245.906C37.1178 247.188 36.0791 248.226 34.7979 248.226C33.5167 248.226 32.478 247.188 32.478 245.906C32.478 244.625 33.5167 243.587 34.7979 243.587C36.0791 243.587 37.1178 244.625 37.1178 245.906Z" fill="#EDEDED"/>
<path d="M20.8788 245.906C20.8788 247.188 19.8401 248.226 18.5589 248.226C17.2777 248.226 16.239 247.188 16.239 245.906C16.239 244.625 17.2777 243.587 18.5589 243.587C19.8401 243.587 20.8788 244.625 20.8788 245.906Z" fill="#EDEDED"/>
<path d="M4.63975 245.907C4.63975 247.188 3.6011 248.226 2.31987 248.226C1.03864 248.226 0 247.188 0 245.907C0 244.625 1.03864 243.587 2.31987 243.587C3.6011 243.587 4.63975 244.625 4.63975 245.907Z" fill="#EDEDED"/>
<path d="M69.5958 262.146C69.5958 263.427 68.5572 264.466 67.2759 264.466C65.9947 264.466 64.956 263.427 64.956 262.146C64.956 260.864 65.9947 259.826 67.2759 259.826C68.5572 259.826 69.5958 260.864 69.5958 262.146Z" fill="#EDEDED"/>
<path d="M102.075 262.146C102.075 263.427 101.036 264.466 99.7548 264.466C98.4735 264.466 97.4349 263.427 97.4349 262.146C97.4349 260.864 98.4735 259.826 99.7548 259.826C101.036 259.826 102.075 260.864 102.075 262.146Z" fill="#EDEDED"/>
<path d="M53.3572 262.146C53.3572 263.427 52.3186 264.466 51.0373 264.466C49.7561 264.466 48.7174 263.427 48.7174 262.146C48.7174 260.864 49.7561 259.826 51.0373 259.826C52.3186 259.826 53.3572 260.864 53.3572 262.146Z" fill="#EDEDED"/>
<path d="M85.8356 262.146C85.8356 263.427 84.797 264.466 83.5158 264.466C82.2345 264.466 81.1959 263.427 81.1959 262.146C81.1959 260.864 82.2345 259.826 83.5158 259.826C84.797 259.826 85.8356 260.864 85.8356 262.146Z" fill="#EDEDED"/>
<path d="M118.314 262.146C118.314 263.427 117.275 264.466 115.994 264.466C114.713 264.466 113.674 263.427 113.674 262.146C113.674 260.864 114.713 259.826 115.994 259.826C117.275 259.826 118.314 260.864 118.314 262.146Z" fill="#EDEDED"/>
<path d="M134.553 262.146C134.553 263.427 133.514 264.466 132.233 264.466C130.952 264.466 129.913 263.427 129.913 262.146C129.913 260.864 130.952 259.826 132.233 259.826C133.514 259.826 134.553 260.864 134.553 262.146Z" fill="#EDEDED"/>
<path d="M167.031 262.146C167.031 263.427 165.992 264.466 164.711 264.466C163.43 264.466 162.391 263.427 162.391 262.146C162.391 260.864 163.43 259.826 164.711 259.826C165.992 259.826 167.031 260.864 167.031 262.146Z" fill="#EDEDED"/>
<path d="M199.509 262.146C199.509 263.427 198.47 264.466 197.189 264.466C195.908 264.466 194.869 263.427 194.869 262.146C194.869 260.864 195.908 259.826 197.189 259.826C198.47 259.826 199.509 260.864 199.509 262.146Z" fill="#EDEDED"/>
<path d="M150.792 262.146C150.792 263.427 149.753 264.466 148.472 264.466C147.191 264.466 146.152 263.427 146.152 262.146C146.152 260.864 147.191 259.826 148.472 259.826C149.753 259.826 150.792 260.864 150.792 262.146Z" fill="#EDEDED"/>
<path d="M183.27 262.146C183.27 263.427 182.231 264.466 180.95 264.466C179.669 264.466 178.63 263.427 178.63 262.146C178.63 260.864 179.669 259.826 180.95 259.826C182.231 259.826 183.27 260.864 183.27 262.146Z" fill="#EDEDED"/>
<path d="M215.747 262.146C215.747 263.427 214.709 264.466 213.427 264.466C212.146 264.466 211.108 263.427 211.108 262.146C211.108 260.864 212.146 259.826 213.427 259.826C214.709 259.826 215.747 260.864 215.747 262.146Z" fill="#EDEDED"/>
<path d="M37.1178 262.146C37.1178 263.427 36.0791 264.466 34.7979 264.466C33.5167 264.466 32.478 263.427 32.478 262.146C32.478 260.864 33.5167 259.826 34.7979 259.826C36.0791 259.826 37.1178 260.864 37.1178 262.146Z" fill="#EDEDED"/>
<path d="M20.8788 262.146C20.8788 263.427 19.8401 264.466 18.5589 264.466C17.2777 264.466 16.239 263.427 16.239 262.146C16.239 260.864 17.2777 259.826 18.5589 259.826C19.8401 259.826 20.8788 260.864 20.8788 262.146Z" fill="#EDEDED"/>
<path d="M4.63975 262.147C4.63975 263.429 3.6011 264.467 2.31987 264.467C1.03864 264.467 0 263.429 0 262.147C0 260.866 1.03864 259.827 2.31987 259.827C3.6011 259.827 4.63975 260.866 4.63975 262.147Z" fill="#EDEDED"/>
<path d="M69.5958 278.385C69.5958 279.666 68.5572 280.705 67.2759 280.705C65.9947 280.705 64.956 279.666 64.956 278.385C64.956 277.103 65.9947 276.065 67.2759 276.065C68.5572 276.065 69.5958 277.103 69.5958 278.385Z" fill="#EDEDED"/>
<path d="M102.075 278.385C102.075 279.666 101.036 280.705 99.7548 280.705C98.4735 280.705 97.4349 279.666 97.4349 278.385C97.4349 277.103 98.4735 276.065 99.7548 276.065C101.036 276.065 102.075 277.103 102.075 278.385Z" fill="#EDEDED"/>
<path d="M53.3572 278.385C53.3572 279.666 52.3186 280.705 51.0373 280.705C49.7561 280.705 48.7174 279.666 48.7174 278.385C48.7174 277.103 49.7561 276.065 51.0373 276.065C52.3186 276.065 53.3572 277.103 53.3572 278.385Z" fill="#EDEDED"/>
<path d="M85.8356 278.385C85.8356 279.666 84.797 280.705 83.5158 280.705C82.2345 280.705 81.1959 279.666 81.1959 278.385C81.1959 277.103 82.2345 276.065 83.5158 276.065C84.797 276.065 85.8356 277.103 85.8356 278.385Z" fill="#EDEDED"/>
<path d="M118.314 278.385C118.314 279.666 117.275 280.705 115.994 280.705C114.713 280.705 113.674 279.666 113.674 278.385C113.674 277.103 114.713 276.065 115.994 276.065C117.275 276.065 118.314 277.103 118.314 278.385Z" fill="#EDEDED"/>
<path d="M134.553 278.385C134.553 279.666 133.514 280.705 132.233 280.705C130.952 280.705 129.913 279.666 129.913 278.385C129.913 277.103 130.952 276.065 132.233 276.065C133.514 276.065 134.553 277.103 134.553 278.385Z" fill="#EDEDED"/>
<path d="M167.031 278.385C167.031 279.666 165.992 280.705 164.711 280.705C163.43 280.705 162.391 279.666 162.391 278.385C162.391 277.103 163.43 276.065 164.711 276.065C165.992 276.065 167.031 277.103 167.031 278.385Z" fill="#EDEDED"/>
<path d="M199.509 278.385C199.509 279.666 198.47 280.705 197.189 280.705C195.908 280.705 194.869 279.666 194.869 278.385C194.869 277.103 195.908 276.065 197.189 276.065C198.47 276.065 199.509 277.103 199.509 278.385Z" fill="#EDEDED"/>
<path d="M150.792 278.385C150.792 279.666 149.753 280.705 148.472 280.705C147.191 280.705 146.152 279.666 146.152 278.385C146.152 277.103 147.191 276.065 148.472 276.065C149.753 276.065 150.792 277.103 150.792 278.385Z" fill="#EDEDED"/>
<path d="M183.27 278.385C183.27 279.666 182.231 280.705 180.95 280.705C179.669 280.705 178.63 279.666 178.63 278.385C178.63 277.103 179.669 276.065 180.95 276.065C182.231 276.065 183.27 277.103 183.27 278.385Z" fill="#EDEDED"/>
<path d="M215.747 278.385C215.747 279.666 214.709 280.705 213.427 280.705C212.146 280.705 211.108 279.666 211.108 278.385C211.108 277.103 212.146 276.065 213.427 276.065C214.709 276.065 215.747 277.103 215.747 278.385Z" fill="#EDEDED"/>
<path d="M37.1178 278.385C37.1178 279.666 36.0791 280.705 34.7979 280.705C33.5167 280.705 32.478 279.666 32.478 278.385C32.478 277.103 33.5167 276.065 34.7979 276.065C36.0791 276.065 37.1178 277.103 37.1178 278.385Z" fill="#EDEDED"/>
<path d="M20.8788 278.385C20.8788 279.666 19.8401 280.705 18.5589 280.705C17.2777 280.705 16.239 279.666 16.239 278.385C16.239 277.103 17.2777 276.065 18.5589 276.065C19.8401 276.065 20.8788 277.103 20.8788 278.385Z" fill="#EDEDED"/>
<path d="M4.63975 278.385C4.63975 279.667 3.6011 280.705 2.31987 280.705C1.03864 280.705 0 279.667 0 278.385C0 277.104 1.03864 276.066 2.31987 276.066C3.6011 276.066 4.63975 277.104 4.63975 278.385Z" fill="#EDEDED"/>
<path d="M69.5958 294.624C69.5958 295.905 68.5572 296.944 67.2759 296.944C65.9947 296.944 64.956 295.905 64.956 294.624C64.956 293.343 65.9947 292.304 67.2759 292.304C68.5572 292.304 69.5958 293.343 69.5958 294.624Z" fill="#EDEDED"/>
<path d="M102.075 294.624C102.075 295.905 101.036 296.944 99.7548 296.944C98.4735 296.944 97.4349 295.905 97.4349 294.624C97.4349 293.343 98.4735 292.304 99.7548 292.304C101.036 292.304 102.075 293.343 102.075 294.624Z" fill="#EDEDED"/>
<path d="M53.3572 294.624C53.3572 295.905 52.3186 296.944 51.0373 296.944C49.7561 296.944 48.7174 295.905 48.7174 294.624C48.7174 293.343 49.7561 292.304 51.0373 292.304C52.3186 292.304 53.3572 293.343 53.3572 294.624Z" fill="#EDEDED"/>
<path d="M85.8356 294.624C85.8356 295.905 84.797 296.944 83.5158 296.944C82.2345 296.944 81.1959 295.905 81.1959 294.624C81.1959 293.343 82.2345 292.304 83.5158 292.304C84.797 292.304 85.8356 293.343 85.8356 294.624Z" fill="#EDEDED"/>
<path d="M118.314 294.624C118.314 295.905 117.275 296.944 115.994 296.944C114.713 296.944 113.674 295.905 113.674 294.624C113.674 293.343 114.713 292.304 115.994 292.304C117.275 292.304 118.314 293.343 118.314 294.624Z" fill="#EDEDED"/>
<path d="M134.553 294.624C134.553 295.905 133.514 296.944 132.233 296.944C130.952 296.944 129.913 295.905 129.913 294.624C129.913 293.343 130.952 292.304 132.233 292.304C133.514 292.304 134.553 293.343 134.553 294.624Z" fill="#EDEDED"/>
<path d="M167.031 294.624C167.031 295.905 165.992 296.944 164.711 296.944C163.43 296.944 162.391 295.905 162.391 294.624C162.391 293.343 163.43 292.304 164.711 292.304C165.992 292.304 167.031 293.343 167.031 294.624Z" fill="#EDEDED"/>
<path d="M199.509 294.624C199.509 295.905 198.47 296.944 197.189 296.944C195.908 296.944 194.869 295.905 194.869 294.624C194.869 293.343 195.908 292.304 197.189 292.304C198.47 292.304 199.509 293.343 199.509 294.624Z" fill="#EDEDED"/>
<path d="M150.792 294.624C150.792 295.905 149.753 296.944 148.472 296.944C147.191 296.944 146.152 295.905 146.152 294.624C146.152 293.343 147.191 292.304 148.472 292.304C149.753 292.304 150.792 293.343 150.792 294.624Z" fill="#EDEDED"/>
<path d="M183.27 294.624C183.27 295.905 182.231 296.944 180.95 296.944C179.669 296.944 178.63 295.905 178.63 294.624C178.63 293.343 179.669 292.304 180.95 292.304C182.231 292.304 183.27 293.343 183.27 294.624Z" fill="#EDEDED"/>
<path d="M215.747 294.624C215.747 295.905 214.709 296.944 213.427 296.944C212.146 296.944 211.108 295.905 211.108 294.624C211.108 293.343 212.146 292.304 213.427 292.304C214.709 292.304 215.747 293.343 215.747 294.624Z" fill="#EDEDED"/>
<path d="M37.1178 294.624C37.1178 295.905 36.0791 296.944 34.7979 296.944C33.5167 296.944 32.478 295.905 32.478 294.624C32.478 293.343 33.5167 292.304 34.7979 292.304C36.0791 292.304 37.1178 293.343 37.1178 294.624Z" fill="#EDEDED"/>
<path d="M20.8788 294.624C20.8788 295.905 19.8401 296.944 18.5589 296.944C17.2777 296.944 16.239 295.905 16.239 294.624C16.239 293.343 17.2777 292.304 18.5589 292.304C19.8401 292.304 20.8788 293.343 20.8788 294.624Z" fill="#EDEDED"/>
<path d="M4.63975 294.624C4.63975 295.905 3.6011 296.944 2.31987 296.944C1.03864 296.944 0 295.905 0 294.624C0 293.343 1.03864 292.304 2.31987 292.304C3.6011 292.304 4.63975 293.343 4.63975 294.624Z" fill="#EDEDED"/>
<path d="M4.63995 2.31987C4.63995 3.6011 3.60131 4.63975 2.32008 4.63975C1.03885 4.63975 0.000204398 3.6011 0.000204398 2.31987C0.000204398 1.03864 1.03885 0 2.32008 0C3.60131 0 4.63995 1.03864 4.63995 2.31987Z" fill="#EDEDED"/>
<path d="M4.63975 34.7982C4.63975 36.0794 3.6011 37.1181 2.31987 37.1181C1.03864 37.1181 0 36.0794 0 34.7982C0 33.517 1.03864 32.4783 2.31987 32.4783C3.6011 32.4783 4.63975 33.517 4.63975 34.7982Z" fill="#EDEDED"/>
<path d="M4.63975 18.5589C4.63975 19.8401 3.6011 20.8788 2.31987 20.8788C1.03864 20.8788 0 19.8401 0 18.5589C0 17.2777 1.03864 16.239 2.31987 16.239C3.6011 16.239 4.63975 17.2777 4.63975 18.5589Z" fill="#EDEDED"/>
<path d="M4.63975 51.037C4.63975 52.3183 3.6011 53.3569 2.31987 53.3569C1.03864 53.3569 0 52.3183 0 51.037C0 49.7558 1.03864 48.7172 2.31987 48.7172C3.6011 48.7172 4.63975 49.7558 4.63975 51.037Z" fill="#EDEDED"/>
<path d="M4.63975 67.2763C4.63975 68.5575 3.6011 69.5961 2.31987 69.5961C1.03864 69.5961 0 68.5575 0 67.2763C0 65.995 1.03864 64.9564 2.31987 64.9564C3.6011 64.9564 4.63975 65.995 4.63975 67.2763Z" fill="#EDEDED"/>
<path d="M4.63975 99.7546C4.63975 101.036 3.6011 102.074 2.31987 102.074C1.03864 102.074 0 101.036 0 99.7546C0 98.4734 1.03864 97.4347 2.31987 97.4347C3.6011 97.4347 4.63975 98.4734 4.63975 99.7546Z" fill="#EDEDED"/>
<path d="M4.63975 83.5154C4.63975 84.7966 3.6011 85.8353 2.31987 85.8353C1.03864 85.8353 0 84.7966 0 83.5154C0 82.2342 1.03864 81.1955 2.31987 81.1955C3.6011 81.1955 4.63975 82.2342 4.63975 83.5154Z" fill="#EDEDED"/>
<path d="M4.63975 115.994C4.63975 117.275 3.6011 118.313 2.31987 118.313C1.03864 118.313 0 117.275 0 115.994C0 114.712 1.03864 113.674 2.31987 113.674C3.6011 113.674 4.63975 114.712 4.63975 115.994Z" fill="#EDEDED"/>
<path d="M69.5958 115.994C69.5958 117.275 68.5572 118.313 67.2759 118.313C65.9947 118.313 64.956 117.275 64.956 115.994C64.956 114.712 65.9947 113.674 67.2759 113.674C68.5572 113.674 69.5958 114.712 69.5958 115.994Z" fill="#EDEDED"/>
<path d="M102.075 115.994C102.075 117.275 101.036 118.313 99.7548 118.313C98.4735 118.313 97.4349 117.275 97.4349 115.994C97.4349 114.712 98.4735 113.674 99.7548 113.674C101.036 113.674 102.075 114.712 102.075 115.994Z" fill="#EDEDED"/>
<path d="M53.3572 115.994C53.3572 117.275 52.3186 118.313 51.0373 118.313C49.7561 118.313 48.7174 117.275 48.7174 115.994C48.7174 114.712 49.7561 113.674 51.0373 113.674C52.3186 113.674 53.3572 114.712 53.3572 115.994Z" fill="#EDEDED"/>
<path d="M85.8356 115.994C85.8356 117.275 84.797 118.313 83.5158 118.313C82.2345 118.313 81.1959 117.275 81.1959 115.994C81.1959 114.712 82.2345 113.674 83.5158 113.674C84.797 113.674 85.8356 114.712 85.8356 115.994Z" fill="#EDEDED"/>
<path d="M118.314 115.994C118.314 117.275 117.275 118.313 115.994 118.313C114.713 118.313 113.674 117.275 113.674 115.994C113.674 114.712 114.713 113.674 115.994 113.674C117.275 113.674 118.314 114.712 118.314 115.994Z" fill="#EDEDED"/>
<path d="M134.552 2.31987C134.552 3.6011 133.514 4.63975 132.233 4.63975C130.951 4.63975 129.913 3.6011 129.913 2.31987C129.913 1.03864 130.951 0 132.233 0C133.514 0 134.552 1.03864 134.552 2.31987Z" fill="#EDEDED"/>
<path d="M167.03 2.31987C167.03 3.6011 165.991 4.63975 164.71 4.63975C163.429 4.63975 162.39 3.6011 162.39 2.31987C162.39 1.03864 163.429 0 164.71 0C165.991 0 167.03 1.03864 167.03 2.31987Z" fill="#EDEDED"/>
<path d="M199.507 2.31987C199.507 3.6011 198.469 4.63975 197.188 4.63975C195.906 4.63975 194.868 3.6011 194.868 2.31987C194.868 1.03864 195.906 0 197.188 0C198.469 0 199.507 1.03864 199.507 2.31987Z" fill="#EDEDED"/>
<path d="M150.791 2.31987C150.791 3.6011 149.752 4.63975 148.471 4.63975C147.19 4.63975 146.151 3.6011 146.151 2.31987C146.151 1.03864 147.19 0 148.471 0C149.752 0 150.791 1.03864 150.791 2.31987Z" fill="#EDEDED"/>
<path d="M183.268 2.31987C183.268 3.6011 182.23 4.63975 180.948 4.63975C179.667 4.63975 178.629 3.6011 178.629 2.31987C178.629 1.03864 179.667 0 180.948 0C182.23 0 183.268 1.03864 183.268 2.31987Z" fill="#EDEDED"/>
<path d="M215.746 2.31987C215.746 3.6011 214.707 4.63975 213.426 4.63975C212.145 4.63975 211.106 3.6011 211.106 2.31987C211.106 1.03864 212.145 0 213.426 0C214.707 0 215.746 1.03864 215.746 2.31987Z" fill="#EDEDED"/>
<path d="M134.552 34.7982C134.552 36.0794 133.514 37.1181 132.232 37.1181C130.951 37.1181 129.913 36.0794 129.913 34.7982C129.913 33.517 130.951 32.4783 132.232 32.4783C133.514 32.4783 134.552 33.517 134.552 34.7982Z" fill="#EDEDED"/>
<path d="M167.03 34.7983C167.03 36.0795 165.991 37.1182 164.71 37.1182C163.429 37.1182 162.39 36.0795 162.39 34.7983C162.39 33.5171 163.429 32.4784 164.71 32.4784C165.991 32.4784 167.03 33.5171 167.03 34.7983Z" fill="#EDEDED"/>
<path d="M199.508 34.7983C199.508 36.0795 198.469 37.1182 197.188 37.1182C195.907 37.1182 194.868 36.0795 194.868 34.7983C194.868 33.5171 195.907 32.4784 197.188 32.4784C198.469 32.4784 199.508 33.5171 199.508 34.7983Z" fill="#EDEDED"/>
<path d="M150.791 34.7983C150.791 36.0795 149.752 37.1182 148.471 37.1182C147.19 37.1182 146.151 36.0795 146.151 34.7983C146.151 33.5171 147.19 32.4784 148.471 32.4784C149.752 32.4784 150.791 33.5171 150.791 34.7983Z" fill="#EDEDED"/>
<path d="M183.27 34.7983C183.27 36.0795 182.231 37.1182 180.95 37.1182C179.668 37.1182 178.63 36.0795 178.63 34.7983C178.63 33.5171 179.668 32.4784 180.95 32.4784C182.231 32.4784 183.27 33.5171 183.27 34.7983Z" fill="#EDEDED"/>
<path d="M215.747 34.7983C215.747 36.0795 214.708 37.1182 213.427 37.1182C212.146 37.1182 211.107 36.0795 211.107 34.7983C211.107 33.5171 212.146 32.4784 213.427 32.4784C214.708 32.4784 215.747 33.5171 215.747 34.7983Z" fill="#EDEDED"/>
<path d="M134.552 18.5589C134.552 19.8401 133.514 20.8788 132.232 20.8788C130.951 20.8788 129.913 19.8401 129.913 18.5589C129.913 17.2777 130.951 16.239 132.232 16.239C133.514 16.239 134.552 17.2777 134.552 18.5589Z" fill="#EDEDED"/>
<path d="M167.03 18.5589C167.03 19.8401 165.991 20.8788 164.71 20.8788C163.429 20.8788 162.39 19.8401 162.39 18.5589C162.39 17.2777 163.429 16.239 164.71 16.239C165.991 16.239 167.03 17.2777 167.03 18.5589Z" fill="#EDEDED"/>
<path d="M199.508 18.5589C199.508 19.8401 198.469 20.8788 197.188 20.8788C195.907 20.8788 194.868 19.8401 194.868 18.5589C194.868 17.2777 195.907 16.239 197.188 16.239C198.469 16.239 199.508 17.2777 199.508 18.5589Z" fill="#EDEDED"/>
<path d="M150.791 18.5589C150.791 19.8401 149.752 20.8788 148.471 20.8788C147.19 20.8788 146.151 19.8401 146.151 18.5589C146.151 17.2777 147.19 16.239 148.471 16.239C149.752 16.239 150.791 17.2777 150.791 18.5589Z" fill="#EDEDED"/>
<path d="M183.27 18.5589C183.27 19.8401 182.231 20.8788 180.95 20.8788C179.668 20.8788 178.63 19.8401 178.63 18.5589C178.63 17.2777 179.668 16.239 180.95 16.239C182.231 16.239 183.27 17.2777 183.27 18.5589Z" fill="#EDEDED"/>
<path d="M215.747 18.5589C215.747 19.8401 214.708 20.8788 213.427 20.8788C212.146 20.8788 211.107 19.8401 211.107 18.5589C211.107 17.2777 212.146 16.239 213.427 16.239C214.708 16.239 215.747 17.2777 215.747 18.5589Z" fill="#EDEDED"/>
<path d="M134.552 51.037C134.552 52.3183 133.514 53.3569 132.232 53.3569C130.951 53.3569 129.913 52.3183 129.913 51.037C129.913 49.7558 130.951 48.7172 132.232 48.7172C133.514 48.7172 134.552 49.7558 134.552 51.037Z" fill="#EDEDED"/>
<path d="M167.03 51.037C167.03 52.3183 165.991 53.3569 164.71 53.3569C163.429 53.3569 162.39 52.3183 162.39 51.037C162.39 49.7558 163.429 48.7172 164.71 48.7172C165.991 48.7172 167.03 49.7558 167.03 51.037Z" fill="#EDEDED"/>
<path d="M199.508 51.037C199.508 52.3183 198.469 53.3569 197.188 53.3569C195.907 53.3569 194.868 52.3183 194.868 51.037C194.868 49.7558 195.907 48.7172 197.188 48.7172C198.469 48.7172 199.508 49.7558 199.508 51.037Z" fill="#EDEDED"/>
<path d="M150.791 51.037C150.791 52.3183 149.752 53.3569 148.471 53.3569C147.19 53.3569 146.151 52.3183 146.151 51.037C146.151 49.7558 147.19 48.7172 148.471 48.7172C149.752 48.7172 150.791 49.7558 150.791 51.037Z" fill="#EDEDED"/>
<path d="M183.27 51.037C183.27 52.3183 182.231 53.3569 180.95 53.3569C179.668 53.3569 178.63 52.3183 178.63 51.037C178.63 49.7558 179.668 48.7172 180.95 48.7172C182.231 48.7172 183.27 49.7558 183.27 51.037Z" fill="#EDEDED"/>
<path d="M215.747 51.037C215.747 52.3183 214.708 53.3569 213.427 53.3569C212.146 53.3569 211.107 52.3183 211.107 51.037C211.107 49.7558 212.146 48.7172 213.427 48.7172C214.708 48.7172 215.747 49.7558 215.747 51.037Z" fill="#EDEDED"/>
<path d="M134.554 67.2763C134.554 68.5575 133.515 69.5961 132.234 69.5961C130.953 69.5961 129.914 68.5575 129.914 67.2763C129.914 65.995 130.953 64.9564 132.234 64.9564C133.515 64.9564 134.554 65.995 134.554 67.2763Z" fill="#EDEDED"/>
<path d="M167.03 67.2763C167.03 68.5575 165.991 69.5961 164.71 69.5961C163.429 69.5961 162.39 68.5575 162.39 67.2763C162.39 65.995 163.429 64.9564 164.71 64.9564C165.991 64.9564 167.03 65.995 167.03 67.2763Z" fill="#EDEDED"/>
<path d="M199.508 67.2763C199.508 68.5575 198.469 69.5962 197.188 69.5962C195.907 69.5962 194.868 68.5575 194.868 67.2763C194.868 65.9951 195.907 64.9564 197.188 64.9564C198.469 64.9564 199.508 65.9951 199.508 67.2763Z" fill="#EDEDED"/>
<path d="M150.791 67.2763C150.791 68.5575 149.752 69.5961 148.471 69.5961C147.19 69.5961 146.151 68.5575 146.151 67.2763C146.151 65.995 147.19 64.9564 148.471 64.9564C149.752 64.9564 150.791 65.995 150.791 67.2763Z" fill="#EDEDED"/>
<path d="M183.269 67.2763C183.269 68.5575 182.23 69.5961 180.949 69.5961C179.668 69.5961 178.629 68.5575 178.629 67.2763C178.629 65.995 179.668 64.9564 180.949 64.9564C182.23 64.9564 183.269 65.995 183.269 67.2763Z" fill="#EDEDED"/>
<path d="M215.747 67.2763C215.747 68.5575 214.708 69.5962 213.427 69.5962C212.146 69.5962 211.107 68.5575 211.107 67.2763C211.107 65.9951 212.146 64.9564 213.427 64.9564C214.708 64.9564 215.747 65.9951 215.747 67.2763Z" fill="#EDEDED"/>
<path d="M134.552 99.7546C134.552 101.036 133.514 102.074 132.232 102.074C130.951 102.074 129.912 101.036 129.912 99.7546C129.912 98.4734 130.951 97.4347 132.232 97.4347C133.514 97.4347 134.552 98.4734 134.552 99.7546Z" fill="#EDEDED"/>
<path d="M167.03 99.7547C167.03 101.036 165.992 102.075 164.71 102.075C163.429 102.075 162.391 101.036 162.391 99.7547C162.391 98.4735 163.429 97.4348 164.71 97.4348C165.992 97.4348 167.03 98.4735 167.03 99.7547Z" fill="#EDEDED"/>
<path d="M199.508 99.7547C199.508 101.036 198.469 102.075 197.188 102.075C195.907 102.075 194.868 101.036 194.868 99.7547C194.868 98.4735 195.907 97.4349 197.188 97.4349C198.469 97.4349 199.508 98.4735 199.508 99.7547Z" fill="#EDEDED"/>
<path d="M150.791 99.7547C150.791 101.036 149.752 102.075 148.471 102.075C147.19 102.075 146.151 101.036 146.151 99.7547C146.151 98.4735 147.19 97.4348 148.471 97.4348C149.752 97.4348 150.791 98.4735 150.791 99.7547Z" fill="#EDEDED"/>
<path d="M183.269 99.7547C183.269 101.036 182.231 102.075 180.949 102.075C179.668 102.075 178.63 101.036 178.63 99.7547C178.63 98.4735 179.668 97.4348 180.949 97.4348C182.231 97.4348 183.269 98.4735 183.269 99.7547Z" fill="#EDEDED"/>
<path d="M215.747 99.7547C215.747 101.036 214.708 102.075 213.427 102.075C212.146 102.075 211.107 101.036 211.107 99.7547C211.107 98.4735 212.146 97.4349 213.427 97.4349C214.708 97.4349 215.747 98.4735 215.747 99.7547Z" fill="#EDEDED"/>
<path d="M134.552 83.5156C134.552 84.7968 133.514 85.8354 132.232 85.8354C130.951 85.8354 129.912 84.7968 129.912 83.5156C129.912 82.2344 130.951 81.1957 132.232 81.1957C133.514 81.1957 134.552 82.2344 134.552 83.5156Z" fill="#EDEDED"/>
<path d="M167.03 83.5152C167.03 84.7964 165.992 85.835 164.71 85.835C163.429 85.835 162.391 84.7964 162.391 83.5152C162.391 82.2339 163.429 81.1953 164.71 81.1953C165.992 81.1953 167.03 82.2339 167.03 83.5152Z" fill="#EDEDED"/>
<path d="M199.508 83.5152C199.508 84.7964 198.469 85.8351 197.188 85.8351C195.907 85.8351 194.868 84.7964 194.868 83.5152C194.868 82.234 195.907 81.1953 197.188 81.1953C198.469 81.1953 199.508 82.234 199.508 83.5152Z" fill="#EDEDED"/>
<path d="M150.791 83.5152C150.791 84.7964 149.752 85.835 148.471 85.835C147.19 85.835 146.151 84.7964 146.151 83.5152C146.151 82.2339 147.19 81.1953 148.471 81.1953C149.752 81.1953 150.791 82.2339 150.791 83.5152Z" fill="#EDEDED"/>
<path d="M183.269 83.5152C183.269 84.7964 182.231 85.835 180.949 85.835C179.668 85.835 178.63 84.7964 178.63 83.5152C178.63 82.2339 179.668 81.1953 180.949 81.1953C182.231 81.1953 183.269 82.2339 183.269 83.5152Z" fill="#EDEDED"/>
<path d="M215.747 83.5152C215.747 84.7964 214.708 85.8351 213.427 85.8351C212.146 85.8351 211.107 84.7964 211.107 83.5152C211.107 82.234 212.146 81.1953 213.427 81.1953C214.708 81.1953 215.747 82.234 215.747 83.5152Z" fill="#EDEDED"/>
<path d="M134.552 115.994C134.552 117.275 133.514 118.314 132.232 118.314C130.951 118.314 129.912 117.275 129.912 115.994C129.912 114.712 130.951 113.674 132.232 113.674C133.514 113.674 134.552 114.712 134.552 115.994Z" fill="#EDEDED"/>
<path d="M167.03 115.994C167.03 117.275 165.992 118.313 164.71 118.313C163.429 118.313 162.391 117.275 162.391 115.994C162.391 114.712 163.429 113.674 164.71 113.674C165.992 113.674 167.03 114.712 167.03 115.994Z" fill="#EDEDED"/>
<path d="M199.508 115.994C199.508 117.275 198.469 118.314 197.188 118.314C195.907 118.314 194.868 117.275 194.868 115.994C194.868 114.712 195.907 113.674 197.188 113.674C198.469 113.674 199.508 114.712 199.508 115.994Z" fill="#EDEDED"/>
<path d="M150.791 115.994C150.791 117.275 149.752 118.313 148.471 118.313C147.19 118.313 146.151 117.275 146.151 115.994C146.151 114.712 147.19 113.674 148.471 113.674C149.752 113.674 150.791 114.712 150.791 115.994Z" fill="#EDEDED"/>
<path d="M183.269 115.994C183.269 117.275 182.231 118.313 180.949 118.313C179.668 118.313 178.63 117.275 178.63 115.994C178.63 114.712 179.668 113.674 180.949 113.674C182.231 113.674 183.269 114.712 183.269 115.994Z" fill="#EDEDED"/>
<path d="M215.747 115.994C215.747 117.275 214.708 118.314 213.427 118.314C212.146 118.314 211.107 117.275 211.107 115.994C211.107 114.712 212.146 113.674 213.427 113.674C214.708 113.674 215.747 114.712 215.747 115.994Z" fill="#EDEDED"/>
</svg>
