<svg width="151" height="184" viewBox="0 0 151 184" fill="none" xmlns="http://www.w3.org/2000/svg">
<path d="M69.596 132.233C69.596 133.514 68.5574 134.553 67.2761 134.553C65.9949 134.553 64.9563 133.514 64.9563 132.233C64.9563 130.952 65.9949 129.913 67.2761 129.913C68.5574 129.913 69.596 130.952 69.596 132.233Z" fill="#EDEDED"/>
<path d="M102.075 132.233C102.075 133.514 101.036 134.553 99.755 134.553C98.4738 134.553 97.4351 133.514 97.4351 132.233C97.4351 130.952 98.4738 129.913 99.755 129.913C101.036 129.913 102.075 130.952 102.075 132.233Z" fill="#EDEDED"/>
<path d="M53.3572 132.234C53.3572 133.515 52.3185 134.553 51.0373 134.553C49.7561 134.553 48.7174 133.515 48.7174 132.234C48.7174 130.952 49.7561 129.914 51.0373 129.914C52.3185 129.914 53.3572 130.952 53.3572 132.234Z" fill="#EDEDED"/>
<path d="M85.8354 132.233C85.8354 133.514 84.7968 134.553 83.5156 134.553C82.2343 134.553 81.1957 133.514 81.1957 132.233C81.1957 130.952 82.2343 129.913 83.5156 129.913C84.7968 129.913 85.8354 130.952 85.8354 132.233Z" fill="#EDEDED"/>
<path d="M118.314 132.233C118.314 133.514 117.275 134.553 115.994 134.553C114.713 134.553 113.674 133.514 113.674 132.233C113.674 130.952 114.713 129.913 115.994 129.913C117.275 129.913 118.314 130.952 118.314 132.233Z" fill="#EDEDED"/>
<path d="M69.5958 164.711C69.5958 165.992 68.5572 167.031 67.2759 167.031C65.9947 167.031 64.9561 165.992 64.9561 164.711C64.9561 163.43 65.9947 162.391 67.2759 162.391C68.5572 162.391 69.5958 163.43 69.5958 164.711Z" fill="#EDEDED"/>
<path d="M102.075 164.711C102.075 165.992 101.036 167.031 99.7548 167.031C98.4736 167.031 97.4349 165.992 97.4349 164.711C97.4349 163.43 98.4736 162.391 99.7548 162.391C101.036 162.391 102.075 163.43 102.075 164.711Z" fill="#EDEDED"/>
<path d="M53.357 164.711C53.357 165.992 52.3184 167.031 51.0371 167.031C49.7559 167.031 48.7173 165.992 48.7173 164.711C48.7173 163.43 49.7559 162.391 51.0371 162.391C52.3184 162.391 53.357 163.43 53.357 164.711Z" fill="#EDEDED"/>
<path d="M85.8352 164.711C85.8352 165.992 84.7966 167.031 83.5154 167.031C82.2341 167.031 81.1955 165.992 81.1955 164.711C81.1955 163.43 82.2341 162.391 83.5154 162.391C84.7966 162.391 85.8352 163.43 85.8352 164.711Z" fill="#EDEDED"/>
<path d="M118.314 164.711C118.314 165.992 117.275 167.031 115.994 167.031C114.713 167.031 113.674 165.992 113.674 164.711C113.674 163.43 114.713 162.391 115.994 162.391C117.275 162.391 118.314 163.43 118.314 164.711Z" fill="#EDEDED"/>
<path d="M69.5958 148.472C69.5958 149.753 68.5572 150.792 67.2759 150.792C65.9947 150.792 64.9561 149.753 64.9561 148.472C64.9561 147.191 65.9947 146.152 67.2759 146.152C68.5572 146.152 69.5958 147.191 69.5958 148.472Z" fill="#EDEDED"/>
<path d="M102.075 148.472C102.075 149.753 101.036 150.792 99.7548 150.792C98.4736 150.792 97.4349 149.753 97.4349 148.472C97.4349 147.191 98.4736 146.152 99.7548 146.152C101.036 146.152 102.075 147.191 102.075 148.472Z" fill="#EDEDED"/>
<path d="M53.357 148.473C53.357 149.754 52.3184 150.792 51.0371 150.792C49.7559 150.792 48.7173 149.754 48.7173 148.473C48.7173 147.191 49.7559 146.153 51.0371 146.153C52.3184 146.153 53.357 147.191 53.357 148.473Z" fill="#EDEDED"/>
<path d="M85.8352 148.472C85.8352 149.753 84.7966 150.792 83.5154 150.792C82.2341 150.792 81.1955 149.753 81.1955 148.472C81.1955 147.191 82.2341 146.152 83.5154 146.152C84.7966 146.152 85.8352 147.191 85.8352 148.472Z" fill="#EDEDED"/>
<path d="M118.314 148.472C118.314 149.753 117.275 150.792 115.994 150.792C114.713 150.792 113.674 149.753 113.674 148.472C113.674 147.191 114.713 146.152 115.994 146.152C117.275 146.152 118.314 147.191 118.314 148.472Z" fill="#EDEDED"/>
<path d="M69.5958 180.95C69.5958 182.231 68.5572 183.27 67.2759 183.27C65.9947 183.27 64.9561 182.231 64.9561 180.95C64.9561 179.669 65.9947 178.63 67.2759 178.63C68.5572 178.63 69.5958 179.669 69.5958 180.95Z" fill="#EDEDED"/>
<path d="M102.075 180.95C102.075 182.231 101.036 183.27 99.7548 183.27C98.4736 183.27 97.4349 182.231 97.4349 180.95C97.4349 179.669 98.4736 178.63 99.7548 178.63C101.036 178.63 102.075 179.669 102.075 180.95Z" fill="#EDEDED"/>
<path d="M53.357 180.95C53.357 182.231 52.3184 183.27 51.0371 183.27C49.7559 183.27 48.7173 182.231 48.7173 180.95C48.7173 179.669 49.7559 178.63 51.0371 178.63C52.3184 178.63 53.357 179.669 53.357 180.95Z" fill="#EDEDED"/>
<path d="M85.8352 180.95C85.8352 182.231 84.7966 183.27 83.5154 183.27C82.2341 183.27 81.1955 182.231 81.1955 180.95C81.1955 179.669 82.2341 178.63 83.5154 178.63C84.7966 178.63 85.8352 179.669 85.8352 180.95Z" fill="#EDEDED"/>
<path d="M118.314 180.95C118.314 182.231 117.275 183.27 115.994 183.27C114.713 183.27 113.674 182.231 113.674 180.95C113.674 179.669 114.713 178.63 115.994 178.63C117.275 178.63 118.314 179.669 118.314 180.95Z" fill="#EDEDED"/>
<path d="M134.553 132.233C134.553 133.514 133.514 134.553 132.233 134.553C130.952 134.553 129.913 133.514 129.913 132.233C129.913 130.952 130.952 129.913 132.233 129.913C133.514 129.913 134.553 130.952 134.553 132.233Z" fill="#EDEDED"/>
<path d="M150.791 132.233C150.791 133.514 149.752 134.553 148.471 134.553C147.19 134.553 146.151 133.514 146.151 132.233C146.151 130.952 147.19 129.913 148.471 129.913C149.752 129.913 150.791 130.952 150.791 132.233Z" fill="#EDEDED"/>
<path d="M134.553 164.711C134.553 165.992 133.514 167.031 132.233 167.031C130.952 167.031 129.913 165.992 129.913 164.711C129.913 163.43 130.952 162.391 132.233 162.391C133.514 162.391 134.553 163.43 134.553 164.711Z" fill="#EDEDED"/>
<path d="M150.791 164.711C150.791 165.992 149.753 167.031 148.472 167.031C147.19 167.031 146.152 165.992 146.152 164.711C146.152 163.43 147.19 162.391 148.472 162.391C149.753 162.391 150.791 163.43 150.791 164.711Z" fill="#EDEDED"/>
<path d="M134.553 148.473C134.553 149.754 133.514 150.792 132.233 150.792C130.952 150.792 129.913 149.754 129.913 148.473C129.913 147.191 130.952 146.153 132.233 146.153C133.514 146.153 134.553 147.191 134.553 148.473Z" fill="#EDEDED"/>
<path d="M150.791 148.472C150.791 149.753 149.753 150.792 148.472 150.792C147.19 150.792 146.152 149.753 146.152 148.472C146.152 147.191 147.19 146.152 148.472 146.152C149.753 146.152 150.791 147.191 150.791 148.472Z" fill="#EDEDED"/>
<path d="M134.553 180.95C134.553 182.231 133.514 183.27 132.233 183.27C130.952 183.27 129.913 182.231 129.913 180.95C129.913 179.669 130.952 178.63 132.233 178.63C133.514 178.63 134.553 179.669 134.553 180.95Z" fill="#EDEDED"/>
<path d="M150.791 180.95C150.791 182.231 149.753 183.27 148.472 183.27C147.19 183.27 146.152 182.231 146.152 180.95C146.152 179.669 147.19 178.63 148.472 178.63C149.753 178.63 150.791 179.669 150.791 180.95Z" fill="#EDEDED"/>
<path d="M69.596 2.31987C69.596 3.6011 68.5574 4.63975 67.2761 4.63975C65.9949 4.63975 64.9563 3.6011 64.9563 2.31987C64.9563 1.03864 65.9949 0 67.2761 0C68.5574 0 69.596 1.03864 69.596 2.31987Z" fill="#EDEDED"/>
<path d="M102.075 2.31987C102.075 3.6011 101.036 4.63975 99.755 4.63975C98.4738 4.63975 97.4351 3.6011 97.4351 2.31987C97.4351 1.03864 98.4738 0 99.755 0C101.036 0 102.075 1.03864 102.075 2.31987Z" fill="#EDEDED"/>
<path d="M53.3572 2.31987C53.3572 3.6011 52.3185 4.63975 51.0373 4.63975C49.7561 4.63975 48.7174 3.6011 48.7174 2.31987C48.7174 1.03864 49.7561 0 51.0373 0C52.3185 0 53.3572 1.03864 53.3572 2.31987Z" fill="#EDEDED"/>
<path d="M85.8354 2.31987C85.8354 3.6011 84.7968 4.63975 83.5156 4.63975C82.2343 4.63975 81.1957 3.6011 81.1957 2.31987C81.1957 1.03864 82.2343 0 83.5156 0C84.7968 0 85.8354 1.03864 85.8354 2.31987Z" fill="#EDEDED"/>
<path d="M118.314 2.31987C118.314 3.6011 117.275 4.63975 115.994 4.63975C114.713 4.63975 113.674 3.6011 113.674 2.31987C113.674 1.03864 114.713 0 115.994 0C117.275 0 118.314 1.03864 118.314 2.31987Z" fill="#EDEDED"/>
<path d="M69.5958 34.7983C69.5958 36.0795 68.5572 37.1182 67.2759 37.1182C65.9947 37.1182 64.9561 36.0795 64.9561 34.7983C64.9561 33.5171 65.9947 32.4784 67.2759 32.4784C68.5572 32.4784 69.5958 33.5171 69.5958 34.7983Z" fill="#EDEDED"/>
<path d="M102.075 34.7983C102.075 36.0795 101.036 37.1182 99.7548 37.1182C98.4736 37.1182 97.4349 36.0795 97.4349 34.7983C97.4349 33.5171 98.4736 32.4784 99.7548 32.4784C101.036 32.4784 102.075 33.5171 102.075 34.7983Z" fill="#EDEDED"/>
<path d="M53.357 34.7982C53.357 36.0794 52.3184 37.1181 51.0371 37.1181C49.7559 37.1181 48.7173 36.0794 48.7173 34.7982C48.7173 33.517 49.7559 32.4783 51.0371 32.4783C52.3184 32.4783 53.357 33.517 53.357 34.7982Z" fill="#EDEDED"/>
<path d="M85.8352 34.7983C85.8352 36.0795 84.7966 37.1182 83.5154 37.1182C82.2341 37.1182 81.1955 36.0795 81.1955 34.7983C81.1955 33.5171 82.2341 32.4784 83.5154 32.4784C84.7966 32.4784 85.8352 33.5171 85.8352 34.7983Z" fill="#EDEDED"/>
<path d="M118.314 34.7983C118.314 36.0795 117.275 37.1182 115.994 37.1182C114.713 37.1182 113.674 36.0795 113.674 34.7983C113.674 33.5171 114.713 32.4784 115.994 32.4784C117.275 32.4784 118.314 33.5171 118.314 34.7983Z" fill="#EDEDED"/>
<path d="M69.5958 18.5589C69.5958 19.8401 68.5572 20.8788 67.2759 20.8788C65.9947 20.8788 64.9561 19.8401 64.9561 18.5589C64.9561 17.2777 65.9947 16.239 67.2759 16.239C68.5572 16.239 69.5958 17.2777 69.5958 18.5589Z" fill="#EDEDED"/>
<path d="M102.075 18.5589C102.075 19.8401 101.036 20.8788 99.7548 20.8788C98.4736 20.8788 97.4349 19.8401 97.4349 18.5589C97.4349 17.2777 98.4736 16.239 99.7548 16.239C101.036 16.239 102.075 17.2777 102.075 18.5589Z" fill="#EDEDED"/>
<path d="M53.357 18.5589C53.357 19.8401 52.3184 20.8788 51.0371 20.8788C49.7559 20.8788 48.7173 19.8401 48.7173 18.5589C48.7173 17.2777 49.7559 16.239 51.0371 16.239C52.3184 16.239 53.357 17.2777 53.357 18.5589Z" fill="#EDEDED"/>
<path d="M85.8352 18.5589C85.8352 19.8401 84.7966 20.8788 83.5154 20.8788C82.2341 20.8788 81.1955 19.8401 81.1955 18.5589C81.1955 17.2777 82.2341 16.239 83.5154 16.239C84.7966 16.239 85.8352 17.2777 85.8352 18.5589Z" fill="#EDEDED"/>
<path d="M118.314 18.5589C118.314 19.8401 117.275 20.8788 115.994 20.8788C114.713 20.8788 113.674 19.8401 113.674 18.5589C113.674 17.2777 114.713 16.239 115.994 16.239C117.275 16.239 118.314 17.2777 118.314 18.5589Z" fill="#EDEDED"/>
<path d="M69.5958 51.037C69.5958 52.3183 68.5572 53.3569 67.2759 53.3569C65.9947 53.3569 64.9561 52.3183 64.9561 51.037C64.9561 49.7558 65.9947 48.7172 67.2759 48.7172C68.5572 48.7172 69.5958 49.7558 69.5958 51.037Z" fill="#EDEDED"/>
<path d="M102.075 51.037C102.075 52.3183 101.036 53.3569 99.7548 53.3569C98.4736 53.3569 97.4349 52.3183 97.4349 51.037C97.4349 49.7558 98.4736 48.7172 99.7548 48.7172C101.036 48.7172 102.075 49.7558 102.075 51.037Z" fill="#EDEDED"/>
<path d="M53.357 51.037C53.357 52.3183 52.3184 53.3569 51.0371 53.3569C49.7559 53.3569 48.7173 52.3183 48.7173 51.037C48.7173 49.7558 49.7559 48.7172 51.0371 48.7172C52.3184 48.7172 53.357 49.7558 53.357 51.037Z" fill="#EDEDED"/>
<path d="M85.8352 51.037C85.8352 52.3183 84.7966 53.3569 83.5154 53.3569C82.2341 53.3569 81.1955 52.3183 81.1955 51.037C81.1955 49.7558 82.2341 48.7172 83.5154 48.7172C84.7966 48.7172 85.8352 49.7558 85.8352 51.037Z" fill="#EDEDED"/>
<path d="M118.314 51.037C118.314 52.3183 117.275 53.3569 115.994 53.3569C114.713 53.3569 113.674 52.3183 113.674 51.037C113.674 49.7558 114.713 48.7172 115.994 48.7172C117.275 48.7172 118.314 49.7558 118.314 51.037Z" fill="#EDEDED"/>
<path d="M69.596 67.2763C69.596 68.5575 68.5574 69.5961 67.2761 69.5961C65.9949 69.5961 64.9563 68.5575 64.9563 67.2763C64.9563 65.995 65.9949 64.9564 67.2761 64.9564C68.5574 64.9564 69.596 65.995 69.596 67.2763Z" fill="#EDEDED"/>
<path d="M102.075 67.2763C102.075 68.5575 101.036 69.5961 99.755 69.5961C98.4738 69.5961 97.4351 68.5575 97.4351 67.2763C97.4351 65.995 98.4738 64.9564 99.755 64.9564C101.036 64.9564 102.075 65.995 102.075 67.2763Z" fill="#EDEDED"/>
<path d="M53.3572 67.2763C53.3572 68.5575 52.3185 69.5961 51.0373 69.5961C49.7561 69.5961 48.7174 68.5575 48.7174 67.2763C48.7174 65.995 49.7561 64.9564 51.0373 64.9564C52.3185 64.9564 53.3572 65.995 53.3572 67.2763Z" fill="#EDEDED"/>
<path d="M85.8354 67.2763C85.8354 68.5575 84.7968 69.5961 83.5156 69.5961C82.2343 69.5961 81.1957 68.5575 81.1957 67.2763C81.1957 65.995 82.2343 64.9564 83.5156 64.9564C84.7968 64.9564 85.8354 65.995 85.8354 67.2763Z" fill="#EDEDED"/>
<path d="M118.314 67.2763C118.314 68.5575 117.275 69.5961 115.994 69.5961C114.713 69.5961 113.674 68.5575 113.674 67.2763C113.674 65.995 114.713 64.9564 115.994 64.9564C117.275 64.9564 118.314 65.995 118.314 67.2763Z" fill="#EDEDED"/>
<path d="M69.596 99.7547C69.596 101.036 68.5574 102.075 67.2761 102.075C65.9949 102.075 64.9563 101.036 64.9563 99.7547C64.9563 98.4735 65.9949 97.4348 67.2761 97.4348C68.5574 97.4348 69.596 98.4735 69.596 99.7547Z" fill="#EDEDED"/>
<path d="M102.075 99.7547C102.075 101.036 101.036 102.075 99.755 102.075C98.4738 102.075 97.4351 101.036 97.4351 99.7547C97.4351 98.4735 98.4738 97.4348 99.755 97.4348C101.036 97.4348 102.075 98.4735 102.075 99.7547Z" fill="#EDEDED"/>
<path d="M53.3572 99.7546C53.3572 101.036 52.3185 102.074 51.0373 102.074C49.7561 102.074 48.7174 101.036 48.7174 99.7546C48.7174 98.4734 49.7561 97.4347 51.0373 97.4347C52.3185 97.4347 53.3572 98.4734 53.3572 99.7546Z" fill="#EDEDED"/>
<path d="M85.8354 99.7547C85.8354 101.036 84.7968 102.075 83.5156 102.075C82.2343 102.075 81.1957 101.036 81.1957 99.7547C81.1957 98.4735 82.2343 97.4348 83.5156 97.4348C84.7968 97.4348 85.8354 98.4735 85.8354 99.7547Z" fill="#EDEDED"/>
<path d="M118.314 99.7547C118.314 101.036 117.275 102.075 115.994 102.075C114.713 102.075 113.674 101.036 113.674 99.7547C113.674 98.4735 114.713 97.4348 115.994 97.4348C117.275 97.4348 118.314 98.4735 118.314 99.7547Z" fill="#EDEDED"/>
<path d="M69.596 83.5153C69.596 84.7965 68.5574 85.8351 67.2761 85.8351C65.9949 85.8351 64.9563 84.7965 64.9563 83.5153C64.9563 82.234 65.9949 81.1954 67.2761 81.1954C68.5574 81.1954 69.596 82.234 69.596 83.5153Z" fill="#EDEDED"/>
<path d="M102.075 83.5153C102.075 84.7965 101.036 85.8352 99.755 85.8352C98.4738 85.8352 97.4351 84.7965 97.4351 83.5153C97.4351 82.2341 98.4738 81.1954 99.755 81.1954C101.036 81.1954 102.075 82.2341 102.075 83.5153Z" fill="#EDEDED"/>
<path d="M53.3572 83.5158C53.3572 84.797 52.3185 85.8356 51.0373 85.8356C49.7561 85.8356 48.7174 84.797 48.7174 83.5158C48.7174 82.2345 49.7561 81.1959 51.0373 81.1959C52.3185 81.1959 53.3572 82.2345 53.3572 83.5158Z" fill="#EDEDED"/>
<path d="M85.8354 83.5153C85.8354 84.7965 84.7968 85.8352 83.5156 85.8352C82.2343 85.8352 81.1957 84.7965 81.1957 83.5153C81.1957 82.2341 82.2343 81.1954 83.5156 81.1954C84.7968 81.1954 85.8354 82.2341 85.8354 83.5153Z" fill="#EDEDED"/>
<path d="M118.314 83.5153C118.314 84.7965 117.275 85.8352 115.994 85.8352C114.713 85.8352 113.674 84.7965 113.674 83.5153C113.674 82.2341 114.713 81.1954 115.994 81.1954C117.275 81.1954 118.314 82.2341 118.314 83.5153Z" fill="#EDEDED"/>
<path d="M37.1183 132.233C37.1183 133.514 36.0797 134.553 34.7985 134.553C33.5172 134.553 32.4786 133.514 32.4786 132.233C32.4786 130.952 33.5172 129.913 34.7985 129.913C36.0797 129.913 37.1183 130.952 37.1183 132.233Z" fill="#EDEDED"/>
<path d="M37.1183 164.711C37.1183 165.992 36.0797 167.031 34.7985 167.031C33.5172 167.031 32.4786 165.992 32.4786 164.711C32.4786 163.43 33.5172 162.391 34.7985 162.391C36.0797 162.391 37.1183 163.43 37.1183 164.711Z" fill="#EDEDED"/>
<path d="M37.1183 148.472C37.1183 149.753 36.0797 150.792 34.7985 150.792C33.5172 150.792 32.4786 149.753 32.4786 148.472C32.4786 147.191 33.5172 146.152 34.7985 146.152C36.0797 146.152 37.1183 147.191 37.1183 148.472Z" fill="#EDEDED"/>
<path d="M37.1183 180.95C37.1183 182.231 36.0797 183.27 34.7985 183.27C33.5172 183.27 32.4786 182.231 32.4786 180.95C32.4786 179.669 33.5172 178.63 34.7985 178.63C36.0797 178.63 37.1183 179.669 37.1183 180.95Z" fill="#EDEDED"/>
<path d="M37.1179 2.31987C37.1179 3.6011 36.0792 4.63975 34.798 4.63975C33.5167 4.63975 32.4781 3.6011 32.4781 2.31987C32.4781 1.03864 33.5167 0 34.798 0C36.0792 0 37.1179 1.03864 37.1179 2.31987Z" fill="#EDEDED"/>
<path d="M37.1183 34.7982C37.1183 36.0794 36.0797 37.1181 34.7985 37.1181C33.5172 37.1181 32.4786 36.0794 32.4786 34.7982C32.4786 33.517 33.5172 32.4783 34.7985 32.4783C36.0797 32.4783 37.1183 33.517 37.1183 34.7982Z" fill="#EDEDED"/>
<path d="M37.1183 18.5589C37.1183 19.8401 36.0797 20.8788 34.7985 20.8788C33.5172 20.8788 32.4786 19.8401 32.4786 18.5589C32.4786 17.2777 33.5172 16.239 34.7985 16.239C36.0797 16.239 37.1183 17.2777 37.1183 18.5589Z" fill="#EDEDED"/>
<path d="M37.1183 51.037C37.1183 52.3183 36.0797 53.3569 34.7985 53.3569C33.5172 53.3569 32.4786 52.3183 32.4786 51.037C32.4786 49.7558 33.5172 48.7172 34.7985 48.7172C36.0797 48.7172 37.1183 49.7558 37.1183 51.037Z" fill="#EDEDED"/>
<path d="M37.1183 67.2763C37.1183 68.5575 36.0797 69.5961 34.7985 69.5961C33.5172 69.5961 32.4786 68.5575 32.4786 67.2763C32.4786 65.995 33.5172 64.9564 34.7985 64.9564C36.0797 64.9564 37.1183 65.995 37.1183 67.2763Z" fill="#EDEDED"/>
<path d="M37.1183 99.7546C37.1183 101.036 36.0797 102.074 34.7985 102.074C33.5172 102.074 32.4786 101.036 32.4786 99.7546C32.4786 98.4734 33.5172 97.4347 34.7985 97.4347C36.0797 97.4347 37.1183 98.4734 37.1183 99.7546Z" fill="#EDEDED"/>
<path d="M37.1183 83.5154C37.1183 84.7966 36.0797 85.8353 34.7985 85.8353C33.5172 85.8353 32.4786 84.7966 32.4786 83.5154C32.4786 82.2342 33.5172 81.1955 34.7985 81.1955C36.0797 81.1955 37.1183 82.2342 37.1183 83.5154Z" fill="#EDEDED"/>
<path d="M37.1183 115.994C37.1183 117.275 36.0797 118.313 34.7985 118.313C33.5172 118.313 32.4786 117.275 32.4786 115.994C32.4786 114.712 33.5172 113.674 34.7985 113.674C36.0797 113.674 37.1183 114.712 37.1183 115.994Z" fill="#EDEDED"/>
<path d="M20.8784 132.233C20.8784 133.514 19.8398 134.553 18.5585 134.553C17.2773 134.553 16.2387 133.514 16.2387 132.233C16.2387 130.952 17.2773 129.913 18.5585 129.913C19.8398 129.913 20.8784 130.952 20.8784 132.233Z" fill="#EDEDED"/>
<path d="M20.8784 164.711C20.8784 165.992 19.8398 167.031 18.5585 167.031C17.2773 167.031 16.2387 165.992 16.2387 164.711C16.2387 163.43 17.2773 162.391 18.5585 162.391C19.8398 162.391 20.8784 163.43 20.8784 164.711Z" fill="#EDEDED"/>
<path d="M20.8784 148.472C20.8784 149.753 19.8398 150.792 18.5585 150.792C17.2773 150.792 16.2387 149.753 16.2387 148.472C16.2387 147.191 17.2773 146.152 18.5585 146.152C19.8398 146.152 20.8784 147.191 20.8784 148.472Z" fill="#EDEDED"/>
<path d="M20.8784 180.95C20.8784 182.231 19.8398 183.27 18.5585 183.27C17.2773 183.27 16.2387 182.231 16.2387 180.95C16.2387 179.669 17.2773 178.63 18.5585 178.63C19.8398 178.63 20.8784 179.669 20.8784 180.95Z" fill="#EDEDED"/>
<path d="M20.8785 2.31987C20.8785 3.6011 19.8399 4.63975 18.5586 4.63975C17.2774 4.63975 16.2388 3.6011 16.2388 2.31987C16.2388 1.03864 17.2774 0 18.5586 0C19.8399 0 20.8785 1.03864 20.8785 2.31987Z" fill="#EDEDED"/>
<path d="M20.8784 34.7982C20.8784 36.0794 19.8398 37.1181 18.5585 37.1181C17.2773 37.1181 16.2387 36.0794 16.2387 34.7982C16.2387 33.517 17.2773 32.4783 18.5585 32.4783C19.8398 32.4783 20.8784 33.517 20.8784 34.7982Z" fill="#EDEDED"/>
<path d="M20.8784 18.5589C20.8784 19.8401 19.8398 20.8788 18.5585 20.8788C17.2773 20.8788 16.2387 19.8401 16.2387 18.5589C16.2387 17.2777 17.2773 16.239 18.5585 16.239C19.8398 16.239 20.8784 17.2777 20.8784 18.5589Z" fill="#EDEDED"/>
<path d="M20.8784 51.037C20.8784 52.3183 19.8398 53.3569 18.5585 53.3569C17.2773 53.3569 16.2387 52.3183 16.2387 51.037C16.2387 49.7558 17.2773 48.7172 18.5585 48.7172C19.8398 48.7172 20.8784 49.7558 20.8784 51.037Z" fill="#EDEDED"/>
<path d="M20.8784 67.2763C20.8784 68.5575 19.8398 69.5961 18.5585 69.5961C17.2773 69.5961 16.2387 68.5575 16.2387 67.2763C16.2387 65.995 17.2773 64.9564 18.5585 64.9564C19.8398 64.9564 20.8784 65.995 20.8784 67.2763Z" fill="#EDEDED"/>
<path d="M20.8784 99.7546C20.8784 101.036 19.8398 102.074 18.5585 102.074C17.2773 102.074 16.2387 101.036 16.2387 99.7546C16.2387 98.4734 17.2773 97.4347 18.5585 97.4347C19.8398 97.4347 20.8784 98.4734 20.8784 99.7546Z" fill="#EDEDED"/>
<path d="M20.8784 83.5154C20.8784 84.7966 19.8398 85.8353 18.5585 85.8353C17.2773 85.8353 16.2387 84.7966 16.2387 83.5154C16.2387 82.2342 17.2773 81.1955 18.5585 81.1955C19.8398 81.1955 20.8784 82.2342 20.8784 83.5154Z" fill="#EDEDED"/>
<path d="M20.8784 115.994C20.8784 117.275 19.8398 118.313 18.5585 118.313C17.2773 118.313 16.2387 117.275 16.2387 115.994C16.2387 114.712 17.2773 113.674 18.5585 113.674C19.8398 113.674 20.8784 114.712 20.8784 115.994Z" fill="#EDEDED"/>
<path d="M4.63975 132.233C4.63975 133.514 3.6011 134.553 2.31987 134.553C1.03864 134.553 0 133.514 0 132.233C0 130.952 1.03864 129.913 2.31987 129.913C3.6011 129.913 4.63975 130.952 4.63975 132.233Z" fill="#EDEDED"/>
<path d="M4.63975 164.711C4.63975 165.992 3.6011 167.031 2.31987 167.031C1.03864 167.031 0 165.992 0 164.711C0 163.43 1.03864 162.391 2.31987 162.391C3.6011 162.391 4.63975 163.43 4.63975 164.711Z" fill="#EDEDED"/>
<path d="M4.63975 148.472C4.63975 149.753 3.6011 150.792 2.31987 150.792C1.03864 150.792 0 149.753 0 148.472C0 147.191 1.03864 146.152 2.31987 146.152C3.6011 146.152 4.63975 147.191 4.63975 148.472Z" fill="#EDEDED"/>
<path d="M4.63975 180.95C4.63975 182.231 3.6011 183.27 2.31987 183.27C1.03864 183.27 0 182.231 0 180.95C0 179.669 1.03864 178.63 2.31987 178.63C3.6011 178.63 4.63975 179.669 4.63975 180.95Z" fill="#EDEDED"/>
<path d="M4.63995 2.31987C4.63995 3.6011 3.60131 4.63975 2.32008 4.63975C1.03885 4.63975 0.000204398 3.6011 0.000204398 2.31987C0.000204398 1.03864 1.03885 0 2.32008 0C3.60131 0 4.63995 1.03864 4.63995 2.31987Z" fill="#EDEDED"/>
<path d="M4.63975 34.7982C4.63975 36.0794 3.6011 37.1181 2.31987 37.1181C1.03864 37.1181 0 36.0794 0 34.7982C0 33.517 1.03864 32.4783 2.31987 32.4783C3.6011 32.4783 4.63975 33.517 4.63975 34.7982Z" fill="#EDEDED"/>
<path d="M4.63975 18.5589C4.63975 19.8401 3.6011 20.8788 2.31987 20.8788C1.03864 20.8788 0 19.8401 0 18.5589C0 17.2777 1.03864 16.239 2.31987 16.239C3.6011 16.239 4.63975 17.2777 4.63975 18.5589Z" fill="#EDEDED"/>
<path d="M4.63975 51.037C4.63975 52.3183 3.6011 53.3569 2.31987 53.3569C1.03864 53.3569 0 52.3183 0 51.037C0 49.7558 1.03864 48.7172 2.31987 48.7172C3.6011 48.7172 4.63975 49.7558 4.63975 51.037Z" fill="#EDEDED"/>
<path d="M4.63975 67.2763C4.63975 68.5575 3.6011 69.5961 2.31987 69.5961C1.03864 69.5961 0 68.5575 0 67.2763C0 65.995 1.03864 64.9564 2.31987 64.9564C3.6011 64.9564 4.63975 65.995 4.63975 67.2763Z" fill="#EDEDED"/>
<path d="M4.63975 99.7546C4.63975 101.036 3.6011 102.074 2.31987 102.074C1.03864 102.074 0 101.036 0 99.7546C0 98.4734 1.03864 97.4347 2.31987 97.4347C3.6011 97.4347 4.63975 98.4734 4.63975 99.7546Z" fill="#EDEDED"/>
<path d="M4.63975 83.5154C4.63975 84.7966 3.6011 85.8353 2.31987 85.8353C1.03864 85.8353 0 84.7966 0 83.5154C0 82.2342 1.03864 81.1955 2.31987 81.1955C3.6011 81.1955 4.63975 82.2342 4.63975 83.5154Z" fill="#EDEDED"/>
<path d="M4.63975 115.994C4.63975 117.275 3.6011 118.313 2.31987 118.313C1.03864 118.313 0 117.275 0 115.994C0 114.712 1.03864 113.674 2.31987 113.674C3.6011 113.674 4.63975 114.712 4.63975 115.994Z" fill="#EDEDED"/>
<path d="M69.5958 115.994C69.5958 117.275 68.5571 118.313 67.2759 118.313C65.9947 118.313 64.956 117.275 64.956 115.994C64.956 114.712 65.9947 113.674 67.2759 113.674C68.5571 113.674 69.5958 114.712 69.5958 115.994Z" fill="#EDEDED"/>
<path d="M102.075 115.994C102.075 117.275 101.036 118.313 99.7548 118.313C98.4735 118.313 97.4349 117.275 97.4349 115.994C97.4349 114.712 98.4735 113.674 99.7548 113.674C101.036 113.674 102.075 114.712 102.075 115.994Z" fill="#EDEDED"/>
<path d="M53.3572 115.994C53.3572 117.275 52.3185 118.313 51.0373 118.313C49.7561 118.313 48.7174 117.275 48.7174 115.994C48.7174 114.712 49.7561 113.674 51.0373 113.674C52.3185 113.674 53.3572 114.712 53.3572 115.994Z" fill="#EDEDED"/>
<path d="M85.8356 115.994C85.8356 117.275 84.797 118.313 83.5158 118.313C82.2345 118.313 81.1959 117.275 81.1959 115.994C81.1959 114.712 82.2345 113.674 83.5158 113.674C84.797 113.674 85.8356 114.712 85.8356 115.994Z" fill="#EDEDED"/>
<path d="M118.314 115.994C118.314 117.275 117.275 118.313 115.994 118.313C114.713 118.313 113.674 117.275 113.674 115.994C113.674 114.712 114.713 113.674 115.994 113.674C117.275 113.674 118.314 114.712 118.314 115.994Z" fill="#EDEDED"/>
<path d="M134.552 2.31987C134.552 3.6011 133.514 4.63975 132.233 4.63975C130.951 4.63975 129.913 3.6011 129.913 2.31987C129.913 1.03864 130.951 0 132.233 0C133.514 0 134.552 1.03864 134.552 2.31987Z" fill="#EDEDED"/>
<path d="M150.791 2.31987C150.791 3.6011 149.752 4.63975 148.471 4.63975C147.19 4.63975 146.151 3.6011 146.151 2.31987C146.151 1.03864 147.19 0 148.471 0C149.752 0 150.791 1.03864 150.791 2.31987Z" fill="#EDEDED"/>
<path d="M134.552 34.7982C134.552 36.0794 133.514 37.1181 132.232 37.1181C130.951 37.1181 129.913 36.0794 129.913 34.7982C129.913 33.517 130.951 32.4783 132.232 32.4783C133.514 32.4783 134.552 33.517 134.552 34.7982Z" fill="#EDEDED"/>
<path d="M150.791 34.7983C150.791 36.0795 149.752 37.1182 148.471 37.1182C147.19 37.1182 146.151 36.0795 146.151 34.7983C146.151 33.5171 147.19 32.4784 148.471 32.4784C149.752 32.4784 150.791 33.5171 150.791 34.7983Z" fill="#EDEDED"/>
<path d="M134.552 18.5589C134.552 19.8401 133.514 20.8788 132.232 20.8788C130.951 20.8788 129.913 19.8401 129.913 18.5589C129.913 17.2777 130.951 16.239 132.232 16.239C133.514 16.239 134.552 17.2777 134.552 18.5589Z" fill="#EDEDED"/>
<path d="M150.791 18.5589C150.791 19.8401 149.752 20.8788 148.471 20.8788C147.19 20.8788 146.151 19.8401 146.151 18.5589C146.151 17.2777 147.19 16.239 148.471 16.239C149.752 16.239 150.791 17.2777 150.791 18.5589Z" fill="#EDEDED"/>
<path d="M134.552 51.037C134.552 52.3183 133.514 53.3569 132.232 53.3569C130.951 53.3569 129.913 52.3183 129.913 51.037C129.913 49.7558 130.951 48.7172 132.232 48.7172C133.514 48.7172 134.552 49.7558 134.552 51.037Z" fill="#EDEDED"/>
<path d="M150.791 51.037C150.791 52.3183 149.752 53.3569 148.471 53.3569C147.19 53.3569 146.151 52.3183 146.151 51.037C146.151 49.7558 147.19 48.7172 148.471 48.7172C149.752 48.7172 150.791 49.7558 150.791 51.037Z" fill="#EDEDED"/>
<path d="M134.554 67.2763C134.554 68.5575 133.515 69.5961 132.234 69.5961C130.953 69.5961 129.914 68.5575 129.914 67.2763C129.914 65.995 130.953 64.9564 132.234 64.9564C133.515 64.9564 134.554 65.995 134.554 67.2763Z" fill="#EDEDED"/>
<path d="M150.791 67.2763C150.791 68.5575 149.752 69.5961 148.471 69.5961C147.19 69.5961 146.151 68.5575 146.151 67.2763C146.151 65.995 147.19 64.9564 148.471 64.9564C149.752 64.9564 150.791 65.995 150.791 67.2763Z" fill="#EDEDED"/>
<path d="M134.552 99.7546C134.552 101.036 133.514 102.074 132.232 102.074C130.951 102.074 129.912 101.036 129.912 99.7546C129.912 98.4734 130.951 97.4347 132.232 97.4347C133.514 97.4347 134.552 98.4734 134.552 99.7546Z" fill="#EDEDED"/>
<path d="M150.791 99.7547C150.791 101.036 149.752 102.075 148.471 102.075C147.19 102.075 146.151 101.036 146.151 99.7547C146.151 98.4735 147.19 97.4348 148.471 97.4348C149.752 97.4348 150.791 98.4735 150.791 99.7547Z" fill="#EDEDED"/>
<path d="M134.552 83.5156C134.552 84.7968 133.514 85.8354 132.232 85.8354C130.951 85.8354 129.912 84.7968 129.912 83.5156C129.912 82.2343 130.951 81.1957 132.232 81.1957C133.514 81.1957 134.552 82.2343 134.552 83.5156Z" fill="#EDEDED"/>
<path d="M150.791 83.5152C150.791 84.7964 149.752 85.835 148.471 85.835C147.19 85.835 146.151 84.7964 146.151 83.5152C146.151 82.2339 147.19 81.1953 148.471 81.1953C149.752 81.1953 150.791 82.2339 150.791 83.5152Z" fill="#EDEDED"/>
<path d="M134.552 115.994C134.552 117.275 133.514 118.314 132.232 118.314C130.951 118.314 129.912 117.275 129.912 115.994C129.912 114.712 130.951 113.674 132.232 113.674C133.514 113.674 134.552 114.712 134.552 115.994Z" fill="#EDEDED"/>
<path d="M150.791 115.994C150.791 117.275 149.752 118.313 148.471 118.313C147.19 118.313 146.151 117.275 146.151 115.994C146.151 114.712 147.19 113.674 148.471 113.674C149.752 113.674 150.791 114.712 150.791 115.994Z" fill="#EDEDED"/>
</svg>
