<svg width="28" height="28" viewBox="0 0 28 28" fill="none" xmlns="http://www.w3.org/2000/svg">
<circle cx="14" cy="14" r="13.5" stroke="#FF8A00"/>
<path fill-rule="evenodd" clip-rule="evenodd" d="M11.1141 7.042C11.8605 7.00764 12.0985 7 14 7C15.9015 7 16.1395 7.00827 16.8853 7.042C17.6311 7.07573 18.1402 7.19473 18.5856 7.36718C19.0521 7.54345 19.4753 7.819 19.8253 8.17536C20.1816 8.52473 20.4565 8.94727 20.6322 9.41436C20.8053 9.85982 20.9236 10.3689 20.958 11.1135C20.9924 11.8612 21 12.0992 21 14C21 15.9015 20.9917 16.1395 20.958 16.8859C20.9243 17.6305 20.8053 18.1395 20.6322 18.585C20.4565 19.0522 20.1812 19.4754 19.8253 19.8253C19.4753 20.1816 19.0521 20.4565 18.5856 20.6322C18.1402 20.8053 17.6311 20.9236 16.8865 20.958C16.1395 20.9924 15.9015 21 14 21C12.0985 21 11.8605 20.9917 11.1141 20.958C10.3695 20.9243 9.86045 20.8053 9.415 20.6322C8.94786 20.4565 8.52461 20.1812 8.17473 19.8253C7.81861 19.4757 7.54302 19.0527 7.36718 18.5856C7.19473 18.1402 7.07636 17.6311 7.042 16.8865C7.00764 16.1388 7 15.9008 7 14C7 12.0985 7.00827 11.8605 7.042 11.1147C7.07573 10.3689 7.19473 9.85982 7.36718 9.41436C7.54328 8.94732 7.81908 8.52429 8.17536 8.17473C8.52475 7.81868 8.94757 7.5431 9.41436 7.36718C9.85982 7.19473 10.3689 7.07636 11.1135 7.042H11.1141ZM16.8286 8.302C16.0905 8.26827 15.869 8.26127 14 8.26127C12.131 8.26127 11.9095 8.26827 11.1714 8.302C10.4885 8.33318 10.1182 8.44709 9.87127 8.54318C9.54482 8.67045 9.31127 8.82127 9.06627 9.06627C8.83403 9.29221 8.6553 9.56727 8.54318 9.87127C8.44709 10.1182 8.33318 10.4885 8.302 11.1714C8.26827 11.9095 8.26127 12.131 8.26127 14C8.26127 15.869 8.26827 16.0905 8.302 16.8286C8.33318 17.5115 8.44709 17.8818 8.54318 18.1287C8.65518 18.4323 8.834 18.7078 9.06627 18.9337C9.29218 19.166 9.56773 19.3448 9.87127 19.4568C10.1182 19.5529 10.4885 19.6668 11.1714 19.698C11.9095 19.7317 12.1304 19.7387 14 19.7387C15.8696 19.7387 16.0905 19.7317 16.8286 19.698C17.5115 19.6668 17.8818 19.5529 18.1287 19.4568C18.4552 19.3295 18.6887 19.1787 18.9337 18.9337C19.166 18.7078 19.3448 18.4323 19.4568 18.1287C19.5529 17.8818 19.6668 17.5115 19.698 16.8286C19.7317 16.0905 19.7387 15.869 19.7387 14C19.7387 12.131 19.7317 11.9095 19.698 11.1714C19.6668 10.4885 19.5529 10.1182 19.4568 9.87127C19.3295 9.54482 19.1787 9.31127 18.9337 9.06627C18.7078 8.83405 18.4327 8.65532 18.1287 8.54318C17.8818 8.44709 17.5115 8.33318 16.8286 8.302ZM13.1059 16.1579C13.6052 16.3658 14.1612 16.3938 14.679 16.2373C15.1967 16.0807 15.644 15.7493 15.9445 15.2996C16.245 14.8499 16.38 14.3098 16.3266 13.7716C16.2731 13.2334 16.0345 12.7304 15.6514 12.3486C15.4072 12.1046 15.1119 11.9177 14.7868 11.8015C14.4617 11.6852 14.1148 11.6425 13.7712 11.6764C13.4276 11.7103 13.0958 11.8199 12.7997 11.9974C12.5036 12.175 12.2505 12.4159 12.0586 12.703C11.8668 12.9901 11.741 13.3161 11.6903 13.6576C11.6396 13.9991 11.6653 14.3476 11.7654 14.6781C11.8656 15.0085 12.0378 15.3126 12.2695 15.5685C12.5013 15.8243 12.787 16.0257 13.1059 16.1579ZM11.4558 11.4558C11.7899 11.1217 12.1866 10.8567 12.6231 10.6759C13.0596 10.495 13.5275 10.402 14 10.402C14.4725 10.402 14.9404 10.495 15.3769 10.6759C15.8134 10.8567 16.2101 11.1217 16.5442 11.4558C16.8783 11.7899 17.1433 12.1866 17.3241 12.6231C17.505 13.0596 17.598 13.5275 17.598 14C17.598 14.4725 17.505 14.9404 17.3241 15.3769C17.1433 15.8134 16.8783 16.2101 16.5442 16.5442C15.8694 17.2189 14.9543 17.598 14 17.598C13.0457 17.598 12.1306 17.2189 11.4558 16.5442C10.7811 15.8694 10.402 14.9543 10.402 14C10.402 13.0457 10.7811 12.1306 11.4558 11.4558ZM18.396 10.9378C18.4788 10.8597 18.5451 10.7658 18.5909 10.6616C18.6368 10.5574 18.6612 10.4451 18.6629 10.3313C18.6646 10.2175 18.6434 10.1045 18.6006 9.99906C18.5578 9.89359 18.4943 9.79778 18.4138 9.7173C18.3333 9.63682 18.2375 9.5733 18.132 9.53051C18.0266 9.48772 17.9136 9.46653 17.7998 9.46819C17.686 9.46985 17.5736 9.49433 17.4695 9.54017C17.3653 9.58602 17.2714 9.6523 17.1933 9.73509C17.0414 9.89611 16.9582 10.11 16.9614 10.3313C16.9647 10.5527 17.054 10.764 17.2106 10.9205C17.3671 11.0771 17.5784 11.1664 17.7998 11.1696C18.0211 11.1729 18.235 11.0897 18.396 10.9378Z" fill="#FF8A00"/>
</svg>
