<svg width="28" height="28" viewBox="0 0 28 28" fill="none" xmlns="http://www.w3.org/2000/svg">
<circle cx="14" cy="14" r="13.5" stroke="#FF8A00"/>
<path d="M9.98084 20V11.2289H6.97979V20H9.98084ZM8.48071 10.0307C9.52723 10.0307 10.1786 9.35714 10.1786 8.51547C10.1591 7.65482 9.52727 7 8.50057 7C7.47403 7 6.80273 7.65484 6.80273 8.51547C6.80273 9.35718 7.45398 10.0307 8.46112 10.0307H8.48061H8.48071ZM11.6419 20H14.643V15.1018C14.643 14.8397 14.6625 14.5778 14.7417 14.3904C14.9587 13.8666 15.4525 13.3242 16.2815 13.3242C17.3674 13.3242 17.8019 14.1285 17.8019 15.3076V19.9999H20.8027V14.9707C20.8027 12.2766 19.3222 11.023 17.3477 11.023C15.7287 11.023 15.0179 11.9021 14.623 12.5008H14.643V11.2287H11.642C11.6814 12.0518 11.642 19.9998 11.642 19.9998L11.6419 20Z" fill="#FF8A00"/>
</svg>
