<svg width="28" height="28" viewBox="0 0 28 28" fill="none" xmlns="http://www.w3.org/2000/svg">
<circle cx="14" cy="14" r="13.5" stroke="#FF8A00"/>
<path d="M14.4006 14.2388C12.4438 14.2388 10.8173 12.5966 10.8173 10.6533C10.8173 8.64292 12.4438 7 14.4013 7C16.4253 7 17.9846 8.64222 17.9846 10.6533C17.9811 11.6075 17.6028 12.5212 16.933 13.1937C16.2632 13.8661 15.3565 14.2423 14.4124 14.2395L14.4006 14.2388ZM14.4006 9.11193C13.5721 9.11193 12.9418 9.81544 12.9418 10.654C12.9418 11.4913 13.5721 12.1283 14.4013 12.1283C15.2637 12.1283 15.8608 11.4913 15.8608 10.654C15.8615 9.81473 15.2637 9.11193 14.4006 9.11193ZM15.8275 17.2222L17.8523 19.1998C18.2505 19.6345 18.2505 20.2715 17.8523 20.674C17.4214 21.1087 16.7571 21.1087 16.4253 20.674L14.4013 18.6628L12.4438 20.674C12.2449 20.8749 11.979 20.975 11.6797 20.975C11.4477 20.975 11.1824 20.8742 10.9496 20.674C10.5513 20.2715 10.5513 19.6345 10.9496 19.1991L13.0069 17.2215C12.264 16.9992 11.5512 16.6843 10.8852 16.2842C10.3872 16.0161 10.2881 15.3462 10.5534 14.8429C10.8852 14.3403 11.4823 14.2066 12.0136 14.5419C12.733 14.9856 13.5595 15.2203 14.4023 15.2203C15.2451 15.2203 16.0716 14.9856 16.7911 14.5419C17.3223 14.2066 17.952 14.3403 18.2505 14.8429C18.5498 15.3462 18.4161 16.0154 17.9513 16.2842C17.3217 16.6867 16.5916 16.9884 15.8282 17.2229L15.8275 17.2222Z" fill="#FF8A00"/>
</svg>
