<svg width="14" height="17" viewBox="0 0 14 17" fill="none" xmlns="http://www.w3.org/2000/svg">
<path d="M7 0C5.14416 0.00208886 3.36495 0.706393 2.05268 1.95842C0.740397 3.21044 0.00219684 4.90795 7.44728e-06 6.67857C-0.0022153 8.12553 0.493176 9.53323 1.41019 10.6857C1.41019 10.6857 1.6011 10.9255 1.63228 10.9601L7 17L12.3703 10.9571C12.3983 10.9249 12.5898 10.6857 12.5898 10.6857L12.5904 10.6839C13.507 9.53191 14.0022 8.12486 14 6.67857C13.9978 4.90795 13.2596 3.21044 11.9473 1.95842C10.635 0.706393 8.85584 0.00208886 7 0ZM7 9.10714C6.49656 9.10714 6.00442 8.96471 5.58582 8.69785C5.16723 8.431 4.84097 8.05171 4.64831 7.60795C4.45565 7.16418 4.40524 6.67588 4.50346 6.20478C4.60168 5.73368 4.84411 5.30095 5.20009 4.96131C5.55608 4.62167 6.00964 4.39037 6.50341 4.29666C6.99718 4.20296 7.50898 4.25105 7.9741 4.43486C8.43922 4.61868 8.83677 4.92995 9.11647 5.32933C9.39616 5.72871 9.54545 6.19825 9.54545 6.67857C9.54461 7.32242 9.27616 7.93967 8.79898 8.39494C8.32179 8.85021 7.67484 9.10634 7 9.10714Z" fill="#FF8A00"/>
</svg>
