<svg width="9" height="5" viewBox="0 0 9 5" fill="none" xmlns="http://www.w3.org/2000/svg">
<path d="M0.00116059 0.709537C0.00086782 0.544043 0.0530643 0.383661 0.14869 0.256231C0.202538 0.18451 0.268671 0.125225 0.3433 0.0817701C0.41793 0.038315 0.499588 0.0115443 0.583601 0.00299105C0.667614 -0.00556218 0.75233 0.00427034 0.832896 0.0319252C0.913463 0.05958 0.988297 0.104513 1.05311 0.164153L4.4912 3.3373L7.93571 0.27748C8.00132 0.218645 8.07681 0.174709 8.15785 0.148196C8.23889 0.121684 8.32387 0.113118 8.40792 0.122991C8.49197 0.132864 8.57342 0.160981 8.64759 0.205726C8.72176 0.250472 8.7872 0.310963 8.84013 0.383724C8.89852 0.457008 8.94257 0.542828 8.9695 0.6358C8.99644 0.728772 9.00568 0.826888 8.99664 0.92399C8.98761 1.02109 8.96049 1.11508 8.917 1.20007C8.87351 1.28505 8.81458 1.35919 8.74392 1.41783L4.89531 4.83887C4.78053 4.94305 4.63657 5 4.488 5C4.33942 5 4.19546 4.94305 4.08068 4.83887L0.232078 1.29742C0.154452 1.22636 0.09309 1.1361 0.0529699 1.03396C0.0128488 0.93182 -0.00490192 0.820672 0.00116059 0.709537Z" fill="#FF8A00"/>
</svg>
