<svg width="70" height="119" viewBox="0 0 70 119" fill="none" xmlns="http://www.w3.org/2000/svg">
<path d="M69.5958 2.9501C69.5958 4.23133 68.5572 5.26997 67.2759 5.26997C65.9947 5.26997 64.9561 4.23133 64.9561 2.9501C64.9561 1.66887 65.9947 0.630234 67.2759 0.630234C68.5572 0.630234 69.5958 1.66887 69.5958 2.9501Z" fill="#EDEDED"/>
<path d="M53.357 2.95013C53.357 4.23136 52.3184 5.27 51.0371 5.27C49.7559 5.27 48.7173 4.23136 48.7173 2.95013C48.7173 1.6689 49.7559 0.630249 51.0371 0.630249C52.3184 0.630249 53.357 1.6689 53.357 2.95013Z" fill="#EDEDED"/>
<path d="M69.5958 19.1892C69.5958 20.4704 68.5572 21.5091 67.2759 21.5091C65.9947 21.5091 64.9561 20.4704 64.9561 19.1892C64.9561 17.9079 65.9947 16.8693 67.2759 16.8693C68.5572 16.8693 69.5958 17.9079 69.5958 19.1892Z" fill="#EDEDED"/>
<path d="M53.357 19.1892C53.357 20.4704 52.3184 21.5091 51.0371 21.5091C49.7559 21.5091 48.7173 20.4704 48.7173 19.1892C48.7173 17.9079 49.7559 16.8693 51.0371 16.8693C52.3184 16.8693 53.357 17.9079 53.357 19.1892Z" fill="#EDEDED"/>
<path d="M69.5956 51.6676C69.5956 52.9488 68.557 53.9875 67.2757 53.9875C65.9945 53.9875 64.9559 52.9488 64.9559 51.6676C64.9559 50.3864 65.9945 49.3477 67.2757 49.3477C68.557 49.3477 69.5956 50.3864 69.5956 51.6676Z" fill="#EDEDED"/>
<path d="M53.3568 51.6675C53.3568 52.9488 52.3182 53.9874 51.0369 53.9874C49.7557 53.9874 48.7171 52.9488 48.7171 51.6675C48.7171 50.3863 49.7557 49.3476 51.0369 49.3476C52.3182 49.3476 53.3568 50.3863 53.3568 51.6675Z" fill="#EDEDED"/>
<path d="M69.5956 35.4285C69.5956 36.7097 68.557 37.7484 67.2757 37.7484C65.9945 37.7484 64.9559 36.7097 64.9559 35.4285C64.9559 34.1472 65.9945 33.1086 67.2757 33.1086C68.557 33.1086 69.5956 34.1472 69.5956 35.4285Z" fill="#EDEDED"/>
<path d="M53.3568 35.4291C53.3568 36.7104 52.3182 37.749 51.0369 37.749C49.7557 37.749 48.7171 36.7104 48.7171 35.4291C48.7171 34.1479 49.7557 33.1093 51.0369 33.1093C52.3182 33.1093 53.3568 34.1479 53.3568 35.4291Z" fill="#EDEDED"/>
<path d="M37.1183 2.95018C37.1183 4.23141 36.0797 5.27007 34.7985 5.27007C33.5172 5.27007 32.4786 4.23141 32.4786 2.95018C32.4786 1.66895 33.5172 0.63031 34.7985 0.63031C36.0797 0.63031 37.1183 1.66895 37.1183 2.95018Z" fill="#EDEDED"/>
<path d="M37.1183 19.1892C37.1183 20.4704 36.0797 21.5091 34.7985 21.5091C33.5172 21.5091 32.4786 20.4704 32.4786 19.1892C32.4786 17.908 33.5172 16.8693 34.7985 16.8693C36.0797 16.8693 37.1183 17.908 37.1183 19.1892Z" fill="#EDEDED"/>
<path d="M37.1183 51.6675C37.1183 52.9487 36.0797 53.9874 34.7985 53.9874C33.5172 53.9874 32.4786 52.9487 32.4786 51.6675C32.4786 50.3863 33.5172 49.3476 34.7985 49.3476C36.0797 49.3476 37.1183 50.3863 37.1183 51.6675Z" fill="#EDEDED"/>
<path d="M37.1183 35.4285C37.1183 36.7097 36.0797 37.7483 34.7985 37.7483C33.5172 37.7483 32.4786 36.7097 32.4786 35.4285C32.4786 34.1472 33.5172 33.1086 34.7985 33.1086C36.0797 33.1086 37.1183 34.1472 37.1183 35.4285Z" fill="#EDEDED"/>
<path d="M20.8784 2.95018C20.8784 4.23141 19.8398 5.27007 18.5585 5.27007C17.2773 5.27007 16.2387 4.23141 16.2387 2.95018C16.2387 1.66895 17.2773 0.63031 18.5585 0.63031C19.8398 0.63031 20.8784 1.66895 20.8784 2.95018Z" fill="#EDEDED"/>
<path d="M20.8784 19.1892C20.8784 20.4704 19.8398 21.5091 18.5585 21.5091C17.2773 21.5091 16.2387 20.4704 16.2387 19.1892C16.2387 17.908 17.2773 16.8693 18.5585 16.8693C19.8398 16.8693 20.8784 17.908 20.8784 19.1892Z" fill="#EDEDED"/>
<path d="M20.8784 51.6675C20.8784 52.9487 19.8398 53.9874 18.5585 53.9874C17.2773 53.9874 16.2387 52.9487 16.2387 51.6675C16.2387 50.3863 17.2773 49.3476 18.5585 49.3476C19.8398 49.3476 20.8784 50.3863 20.8784 51.6675Z" fill="#EDEDED"/>
<path d="M20.8784 35.4285C20.8784 36.7097 19.8398 37.7483 18.5585 37.7483C17.2773 37.7483 16.2387 36.7097 16.2387 35.4285C16.2387 34.1472 17.2773 33.1086 18.5585 33.1086C19.8398 33.1086 20.8784 34.1472 20.8784 35.4285Z" fill="#EDEDED"/>
<path d="M4.63975 2.95018C4.63975 4.23141 3.6011 5.27007 2.31987 5.27007C1.03864 5.27007 0 4.23141 0 2.95018C0 1.66895 1.03864 0.63031 2.31987 0.63031C3.6011 0.63031 4.63975 1.66895 4.63975 2.95018Z" fill="#EDEDED"/>
<path d="M4.63975 19.1892C4.63975 20.4704 3.6011 21.5091 2.31987 21.5091C1.03864 21.5091 0 20.4704 0 19.1892C0 17.908 1.03864 16.8693 2.31987 16.8693C3.6011 16.8693 4.63975 17.908 4.63975 19.1892Z" fill="#EDEDED"/>
<path d="M4.63975 51.6675C4.63975 52.9487 3.6011 53.9874 2.31987 53.9874C1.03864 53.9874 0 52.9487 0 51.6675C0 50.3863 1.03864 49.3476 2.31987 49.3476C3.6011 49.3476 4.63975 50.3863 4.63975 51.6675Z" fill="#EDEDED"/>
<path d="M4.63975 35.4285C4.63975 36.7097 3.6011 37.7483 2.31987 37.7483C1.03864 37.7483 0 36.7097 0 35.4285C0 34.1472 1.03864 33.1086 2.31987 33.1086C3.6011 33.1086 4.63975 34.1472 4.63975 35.4285Z" fill="#EDEDED"/>
<path d="M69.5958 67.9065C69.5958 69.1877 68.5571 70.2263 67.2759 70.2263C65.9947 70.2263 64.956 69.1877 64.956 67.9065C64.956 66.6253 65.9947 65.5866 67.2759 65.5866C68.5571 65.5866 69.5958 66.6253 69.5958 67.9065Z" fill="#EDEDED"/>
<path d="M53.3572 67.9065C53.3572 69.1877 52.3185 70.2263 51.0373 70.2263C49.7561 70.2263 48.7174 69.1877 48.7174 67.9065C48.7174 66.6253 49.7561 65.5866 51.0373 65.5866C52.3185 65.5866 53.3572 66.6253 53.3572 67.9065Z" fill="#EDEDED"/>
<path d="M37.1178 67.9065C37.1178 69.1877 36.0791 70.2263 34.7979 70.2263C33.5167 70.2263 32.478 69.1877 32.478 67.9065C32.478 66.6253 33.5167 65.5866 34.7979 65.5866C36.0791 65.5866 37.1178 66.6253 37.1178 67.9065Z" fill="#EDEDED"/>
<path d="M20.8788 67.9065C20.8788 69.1877 19.8401 70.2263 18.5589 70.2263C17.2777 70.2263 16.239 69.1877 16.239 67.9065C16.239 66.6253 17.2777 65.5866 18.5589 65.5866C19.8401 65.5866 20.8788 66.6253 20.8788 67.9065Z" fill="#EDEDED"/>
<path d="M4.63975 67.9066C4.63975 69.1878 3.6011 70.2265 2.31987 70.2265C1.03864 70.2265 0 69.1878 0 67.9066C0 66.6254 1.03864 65.5867 2.31987 65.5867C3.6011 65.5867 4.63975 66.6254 4.63975 67.9066Z" fill="#EDEDED"/>
<path d="M69.5958 84.1457C69.5958 85.4269 68.5571 86.4655 67.2759 86.4655C65.9947 86.4655 64.956 85.4269 64.956 84.1457C64.956 82.8644 65.9947 81.8258 67.2759 81.8258C68.5571 81.8258 69.5958 82.8644 69.5958 84.1457Z" fill="#EDEDED"/>
<path d="M53.3572 84.1457C53.3572 85.4269 52.3185 86.4655 51.0373 86.4655C49.7561 86.4655 48.7174 85.4269 48.7174 84.1457C48.7174 82.8644 49.7561 81.8258 51.0373 81.8258C52.3185 81.8258 53.3572 82.8644 53.3572 84.1457Z" fill="#EDEDED"/>
<path d="M37.1178 84.1457C37.1178 85.4269 36.0791 86.4655 34.7979 86.4655C33.5167 86.4655 32.478 85.4269 32.478 84.1457C32.478 82.8644 33.5167 81.8258 34.7979 81.8258C36.0791 81.8258 37.1178 82.8644 37.1178 84.1457Z" fill="#EDEDED"/>
<path d="M20.8788 84.1457C20.8788 85.4269 19.8401 86.4655 18.5589 86.4655C17.2777 86.4655 16.239 85.4269 16.239 84.1457C16.239 82.8644 17.2777 81.8258 18.5589 81.8258C19.8401 81.8258 20.8788 82.8644 20.8788 84.1457Z" fill="#EDEDED"/>
<path d="M4.63975 84.1473C4.63975 85.4286 3.6011 86.4672 2.31987 86.4672C1.03864 86.4672 0 85.4286 0 84.1473C0 82.8661 1.03864 81.8275 2.31987 81.8275C3.6011 81.8275 4.63975 82.8661 4.63975 84.1473Z" fill="#EDEDED"/>
<path d="M69.5958 100.385C69.5958 101.666 68.5571 102.705 67.2759 102.705C65.9947 102.705 64.956 101.666 64.956 100.385C64.956 99.1034 65.9947 98.0648 67.2759 98.0648C68.5571 98.0648 69.5958 99.1034 69.5958 100.385Z" fill="#EDEDED"/>
<path d="M53.3572 100.385C53.3572 101.666 52.3185 102.705 51.0373 102.705C49.7561 102.705 48.7174 101.666 48.7174 100.385C48.7174 99.1034 49.7561 98.0648 51.0373 98.0648C52.3185 98.0648 53.3572 99.1034 53.3572 100.385Z" fill="#EDEDED"/>
<path d="M37.1178 100.385C37.1178 101.666 36.0791 102.705 34.7979 102.705C33.5167 102.705 32.478 101.666 32.478 100.385C32.478 99.1034 33.5167 98.0648 34.7979 98.0648C36.0791 98.0648 37.1178 99.1034 37.1178 100.385Z" fill="#EDEDED"/>
<path d="M20.8788 100.385C20.8788 101.666 19.8401 102.705 18.5589 102.705C17.2777 102.705 16.239 101.666 16.239 100.385C16.239 99.1034 17.2777 98.0648 18.5589 98.0648C19.8401 98.0648 20.8788 99.1034 20.8788 100.385Z" fill="#EDEDED"/>
<path d="M4.63975 100.385C4.63975 101.667 3.6011 102.705 2.31987 102.705C1.03864 102.705 0 101.667 0 100.385C0 99.1042 1.03864 98.0656 2.31987 98.0656C3.6011 98.0656 4.63975 99.1042 4.63975 100.385Z" fill="#EDEDED"/>
<path d="M69.5958 116.624C69.5958 117.905 68.5571 118.944 67.2759 118.944C65.9947 118.944 64.956 117.905 64.956 116.624C64.956 115.343 65.9947 114.304 67.2759 114.304C68.5571 114.304 69.5958 115.343 69.5958 116.624Z" fill="#EDEDED"/>
<path d="M53.3572 116.624C53.3572 117.905 52.3185 118.944 51.0373 118.944C49.7561 118.944 48.7174 117.905 48.7174 116.624C48.7174 115.343 49.7561 114.304 51.0373 114.304C52.3185 114.304 53.3572 115.343 53.3572 116.624Z" fill="#EDEDED"/>
<path d="M37.1178 116.624C37.1178 117.905 36.0791 118.944 34.7979 118.944C33.5167 118.944 32.478 117.905 32.478 116.624C32.478 115.343 33.5167 114.304 34.7979 114.304C36.0791 114.304 37.1178 115.343 37.1178 116.624Z" fill="#EDEDED"/>
<path d="M20.8788 116.624C20.8788 117.905 19.8401 118.944 18.5589 118.944C17.2777 118.944 16.239 117.905 16.239 116.624C16.239 115.343 17.2777 114.304 18.5589 114.304C19.8401 114.304 20.8788 115.343 20.8788 116.624Z" fill="#EDEDED"/>
<path d="M4.63975 116.624C4.63975 117.905 3.6011 118.944 2.31987 118.944C1.03864 118.944 0 117.905 0 116.624C0 115.343 1.03864 114.304 2.31987 114.304C3.6011 114.304 4.63975 115.343 4.63975 116.624Z" fill="#EDEDED"/>
</svg>
