<svg width="36" height="36" viewBox="0 0 36 36" fill="none" xmlns="http://www.w3.org/2000/svg">
<circle cx="18" cy="18" r="17.5" transform="rotate(-180 18 18)" stroke="#1A1A1A"/>
<path d="M19.4732 14.258L19.5286 14.1952C19.769 13.9549 20.1472 13.9365 20.4087 14.1398L20.4715 14.1953L23.8025 17.5271C24.0427 17.7673 24.0613 18.1452 23.8582 18.4067L23.8028 18.4695L20.4717 21.8051C20.2116 22.0657 19.7894 22.066 19.5289 21.8058C19.2884 21.5656 19.2697 21.1875 19.4729 20.9258L19.5283 20.863L21.7207 18.6667H12.6667C12.3248 18.6667 12.043 18.4093 12.0045 18.0777L12 18C12 17.6581 12.2574 17.3763 12.5889 17.3378L12.6667 17.3333H21.7227L19.5285 15.138C19.2883 14.8977 19.2698 14.5195 19.4732 14.258L19.5286 14.1952L19.4732 14.258Z" fill="#1A1A1A"/>
</svg>
