<svg width="36" height="36" viewBox="0 0 36 36" fill="none" xmlns="http://www.w3.org/2000/svg">
<circle cx="18" cy="18" r="17.5" stroke="#1A1A1A"/>
<path d="M16.5268 21.742L16.4714 21.8048C16.231 22.0451 15.8528 22.0635 15.5913 21.8602L15.5285 21.8047L12.1975 18.4729C11.9573 18.2327 11.9387 17.8548 12.1418 17.5933L12.1972 17.5305L15.5283 14.1949C15.7884 13.9343 16.2106 13.934 16.4711 14.1942C16.7116 14.4344 16.7303 14.8125 16.5271 15.0742L16.4717 15.137L14.2793 17.3333H23.3333C23.6752 17.3333 23.957 17.5907 23.9955 17.9223L24 18C24 18.3419 23.7426 18.6237 23.4111 18.6622L23.3333 18.6667H14.2773L16.4715 20.862C16.7117 21.1023 16.7302 21.4805 16.5268 21.742L16.4714 21.8048L16.5268 21.742Z" fill="#1A1A1A"/>
</svg>
