<svg width="15" height="13" viewBox="0 0 15 13" fill="none" xmlns="http://www.w3.org/2000/svg">
<path d="M0.263026 6.2399L3.7116 7.51748L5.05595 11.8148C5.1144 12.1051 5.4651 12.1632 5.6989 11.989L7.62775 10.4211C7.8031 10.2468 8.09536 10.2468 8.32916 10.4211L11.7777 12.9181C12.0115 13.0924 12.3622 12.9762 12.4207 12.6859L14.9925 0.490793C15.0509 0.200435 14.7587 -0.0899214 14.4664 0.026222L0.263026 5.48497C-0.0876753 5.60111 -0.0876753 6.12375 0.263026 6.2399ZM4.8806 6.87868L11.6608 2.75559C11.7777 2.69752 11.8946 2.87174 11.7777 2.92981L6.22495 8.09819C6.0496 8.27241 5.87425 8.50469 5.87425 8.79505L5.6989 10.1888C5.6989 10.363 5.40665 10.4211 5.3482 10.1888L4.64679 7.63362C4.47144 7.34326 4.58835 6.99483 4.8806 6.87868Z" fill="white"/>
</svg>
